<?xml version="1.0" encoding="utf-8"?>
<!-- Generator: Adobe Illustrator 22.1.0, SVG Export Plug-In . SVG Version: 6.00 Build 0)  -->
<svg version="1.1"
	 id="svg8" inkscape:version="0.92.2 5c3e80d, 2017-08-06" sodipodi:docname="ICF1Edit.svg" xmlns:cc="http://creativecommons.org/ns#" xmlns:dc="http://purl.org/dc/elements/1.1/" xmlns:inkscape="http://www.inkscape.org/namespaces/inkscape" xmlns:rdf="http://www.w3.org/1999/02/22-rdf-syntax-ns#" xmlns:sodipodi="http://sodipodi.sourceforge.net/DTD/sodipodi-0.dtd" xmlns:svg="http://www.w3.org/2000/svg"
	 xmlns="http://www.w3.org/2000/svg" xmlns:xlink="http://www.w3.org/1999/xlink" x="0px" y="0px" viewBox="0 0 841.9 595.3"
	 style="enable-background:new 0 0 841.9 595.3;" xml:space="preserve">
<style type="text/css">
	.st0{display:none;}
	.st1{fill:#F6A786;stroke:#42626D;stroke-width:6;}
	.st2{fill:none;stroke:#42626D;stroke-width:3.065;}
	.st3{fill:none;stroke:#036BFF;stroke-width:1.065;}
	.st4{font-family:'Futura-Bold';}
	.st5{font-size:36.4342px;}
	.st6{font-size:36px;}
	.st7{fill:#C1E3D3;stroke:#42626D;stroke-width:0.765;}
	.st8{fill:#FEC516;stroke:#000000;stroke-width:0.1738;}
	.st9{fill:#FEC616;stroke:#000000;stroke-width:0.1738;}
	.st10{fill:#FEC516;fill-opacity:0;}
	.st11{fill:#C1E3D3;stroke:#42626D;stroke-width:0.468;}
	.st12{fill:#C1E3D3;stroke:#42626D;stroke-width:0.5317;}
	.st13{fill:#C1E3D3;stroke:#42626D;stroke-width:0.4682;}
	.st14{fill:#DBE1E1;stroke:#000000;stroke-width:0.8601;}
	.st15{font-family:'Futura-Medium';}
	.st16{font-size:8px;}
	.st17{fill:#DBE1E1;stroke:#000000;stroke-width:0.9378;}
</style>
<sodipodi:namedview  bordercolor="#666666" borderopacity="1.0" id="base" inkscape:current-layer="layer2" inkscape:cx="568.36217" inkscape:cy="392.71208" inkscape:document-units="mm" inkscape:pagecheckerboard="true" inkscape:pageopacity="0.0" inkscape:pageshadow="2" inkscape:window-height="789" inkscape:window-maximized="0" inkscape:window-width="1440" inkscape:window-x="-16" inkscape:window-y="3" inkscape:zoom="0.62710784" pagecolor="#ffffff" showgrid="false">
	</sodipodi:namedview>
<g id="layer1" transform="translate(0,-87)" inkscape:groupmode="layer" inkscape:label="Layer 1" sodipodi:insensitive="true" class="st0">
</g>
<g id="layer2" inkscape:groupmode="layer" inkscape:label="new map">
	
		<path id="path3767" inkscape:connector-curvature="0" sodipodi:nodetypes="cccccccccccccccccccccccccccccccccccccc" class="st1" d="
		M31.1,230.5C92.5,163.9,153.9,97.4,215.3,30.8c68.6-0.4,137.1-0.8,205.7-1.2c-0.2,14.9-0.4,29.9-0.6,44.8c5.8,0,11.6,0,17.3,0
		c0,5,0,10,0,14.9c6.4,6.6,12.8,13.2,19.2,19.8c8.9,0,17.8,0,26.6,0c6.3-6.6,12.7-13.2,19-19.9c-0.1-5.1-0.3-10.3-0.4-15.4
		c66.6,0.1,133.2,0.3,199.8,0.4c0,4,0,8,0,12.1c7,7.8,14.1,15.5,21.1,23.3c4.4,0,8.9,0,13.3,0c-0.1,36.9-0.1,73.9-0.2,110.8
		c-11.3,0-22.7,0-34,0c-0.1,17.3-0.1,34.7-0.2,52c20.2-0.1,40.3-0.3,60.5-0.4c0,4.8,0,9.6,0,14.4c7,8,14.1,16.1,21.1,24.1
		c4.4,0,8.9,0,13.3,0c0.1,77.6,0.1,155.2,0.2,232.8c-3.7-0.1-7.5-0.1-11.2-0.2c-8.7,9.4-17.3,18.7-26,28.1c-1.3,0-2.7,0-4,0
		c0.1,5.1,0.1,10.3,0.2,15.4c-68.6,0.4-137.3,0.7-205.9,1.1c0.1-5.1,0.1-10.3,0.2-15.4c-8.5-8.8-16.9-17.6-25.4-26.4
		c0-1.1,0-2.3,0-3.4c-8,0.1-15.9,0.1-23.9,0.2c0,1.1,0,2.1,0,3.2c-8,8.9-16.1,17.8-24.1,26.6c-55-59.8-110.1-119.7-165.1-179.5
		c-31.4,34-62.7,68.1-94.1,102.1c-40.9-44.5-81.9-88.9-122.8-133.4c9.5-9.8,19-19.6,28.5-29.4C92.7,298.3,61.9,264.4,31.1,230.5z"/>
</g>
<g id="layer3" inkscape:groupmode="layer" inkscape:label="internals">
	<path id="path4577" inkscape:connector-curvature="0" class="st2" d="M149.5,106.1l24.2-0.1"/>
	<path id="path4579" inkscape:connector-curvature="0" class="st2" d="M195.4,105.7l50.8-0.1"/>
	<path id="path4581" inkscape:connector-curvature="0" class="st2" d="M268,105.8l16.7-0.1L415,246.5"/>
	<path id="path4583" inkscape:connector-curvature="0" class="st2" d="M415.1,273.1L403.6,260L298.7,373.4l13.9,14.2"/>
	<path id="path4585" inkscape:connector-curvature="0" class="st2" d="M298.8,402.6L287,389.3"/>
	<path id="path4587" inkscape:connector-curvature="0" class="st2" d="M282.7,420.4l-25.9-29l-74.4-0.3L166.2,409"/>
	<path id="path4589" inkscape:connector-curvature="0" class="st2" d="M182.4,391.1l-13.1-15"/>
	<path id="path4591" inkscape:connector-curvature="0" class="st2" d="M256.8,391.4l10.1-10.9"/>
	<path id="path4593" inkscape:connector-curvature="0" class="st2" d="M276.8,368.4l112.7-123.9"/>
</g>
<g id="layer4" inkscape:groupmode="layer" inkscape:label="doors">
</g>
<path id="path4595" inkscape:connector-curvature="0" class="st2" d="M153.5,360.1l-26-27.4"/>
<path id="path4597" inkscape:connector-curvature="0" class="st2" d="M420.4,74.4l-81.7-0.8l0.2,46.1l38.9,0.4l3.6,4"/>
<path id="path4599" inkscape:connector-curvature="0" class="st2" d="M362.4,137.5v5.1l13.1,13.1l32.1-34.9l16.5,16.3l27.3-29.4"/>
<path id="path4601" inkscape:connector-curvature="0" class="st2" d="M424.1,137.1l7.4,8L398.8,180l11.8,12.5l4.7,0.4"/>
<path id="path4605" inkscape:connector-curvature="0" class="st2" d="M427.1,172.4l3.6,3.8l-0.2,34.2l42.7,0.2v-98.5"/>
<path id="path4607" inkscape:connector-curvature="0" class="st3" d="M494.5,209.6l190.8,0.3l-0.3,0.3"/>
<path id="path4609" inkscape:connector-curvature="0" class="st2" d="M494.5,209.6l190.8,0.3"/>
<path id="path4611" inkscape:connector-curvature="0" class="st2" d="M660.5,276.6L699,277"/>
<path id="path4613" inkscape:connector-curvature="0" class="st2" d="M658.8,293.1L658,395.2"/>
<path id="path4615" inkscape:connector-curvature="0" class="st2" d="M659.7,408.7L659,583.4"/>
<path id="path4617" inkscape:connector-curvature="0" class="st2" d="M545.5,429.7l99.4-0.4"/>
<path id="path4619" inkscape:connector-curvature="0" class="st2" d="M532.4,430.9h-19.5l0.4,109.9"/>
<path id="path4621" inkscape:connector-curvature="0" class="st2" d="M462.2,552.7l27.9-30v-24.9"/>
<path id="path4625" inkscape:connector-curvature="0" class="st2" d="M436.8,271.1l52.9,58.4l0.2,66.4"/>
<path id="path4627" inkscape:connector-curvature="0" class="st2" d="M490.3,484.8l0.2-68.3"/>
<g id="layer5" inkscape:groupmode="layer" inkscape:label="rooms">
	<g id="flowRoot40591" transform="scale(0.26458333)">
	</g>
	<text transform="matrix(0.9763 0 0 1 180.6084 263.9668)" class="st4 st5">103</text>
	<g id="flowRoot40603" transform="matrix(0.26458333,0,0,0.26458333,5.4848355,8.4382085)">
	</g>
	<text transform="matrix(1 0 0 1 388.6885 420.6641)" class="st4 st6">105</text>
	<text transform="matrix(1 0 0 1 559.7119 535.4766)" class="st4 st6">109</text>
	<text transform="matrix(1 0 0 1 706.8154 463.7188)" class="st4 st6">111</text>
	<path id="path40638" inkscape:connector-curvature="0" class="st7" d="M377.9,68.8l0.1-10.6l10.8-0.1V47.5l10.9-0.1l0.1-10.9h10.6
		v31.8L377.9,68.8z"/>
	<text transform="matrix(1 0 0 1 571.6709 170.707)" class="st4 st6">115</text>
	<path id="path40644" inkscape:connector-curvature="0" class="st7" d="M552.5,334.3l0.1-10.6l10.8-0.1V313l10.9-0.1l0.1-10.9H585
		v31.8L552.5,334.3z"/>
	<path id="path40648" inkscape:connector-curvature="0" class="st8" d="M513.7,570.9l-7.7-6.4l-3.4,4l-1.9-11.7l11.2,0.6l-2.6,3
		l8,6.6L513.7,570.9z"/>
	<path id="path40650" inkscape:connector-curvature="0" class="st8" d="M491.1,568.6l7.7,6.4l3.4-3.9l1.9,11.7l-11.2-0.6l2.6-3
		l-8-6.6L491.1,568.6z"/>
	<path id="path40652" inkscape:connector-curvature="0" class="st8" d="M731.6,239.6l-10,0.2v5.2l-9.1-7.6l8.8-6.9v4l10.4-0.2
		L731.6,239.6z"/>
	<path id="path40654" inkscape:connector-curvature="0" class="st8" d="M712.9,252.7l10-0.2v-5.2l9.1,7.6l-8.8,6.8v-4l-10.4,0.2
		L712.9,252.7z"/>
	<path id="path40656" inkscape:connector-curvature="0" class="st9" d="M285.6,3.7l0.1,10h5.2l-7.7,9l-6.7-8.9h4l-0.1-10.4
		L285.6,3.7z"/>
	<path id="path40658" inkscape:connector-curvature="0" class="st9" d="M298.4,22.5l-0.1-10l-5.2-0.1l7.7-9l6.7,8.9h-4l0.1,10.4
		L298.4,22.5z"/>
	<path id="path40660" inkscape:connector-curvature="0" class="st9" d="M103.3,336l-7.3-6.9l-3.7,3.7L91.2,321l11.1,1.4l-2.8,2.9
		l7.5,7.2L103.3,336z"/>
	<path id="path40662" inkscape:connector-curvature="0" class="st9" d="M81,332.1l7.2,6.9l3.7-3.7l1,11.8l-11.1-1.4l2.8-2.8
		l-7.5-7.2L81,332.1z"/>
	<ellipse id="path40702" class="st10" cx="482.1" cy="239.5" rx="14.5" ry="12.3"/>
</g>
<g id="layer6" inkscape:groupmode="layer" inkscape:label="extra icons">
	<ellipse id="path40707" class="st11" cx="452.9" cy="169.5" rx="3.2" ry="3"/>
	<path id="rect40709" inkscape:connector-curvature="0" sodipodi:nodetypes="ccccc" class="st12" d="M447.8,174c3.4,0,6.7,0,10.1,0
		v15h-10.1V174z"/>
	<rect id="rect40711" x="450.5" y="189" class="st12" width="5.2" height="10"/>
	<ellipse id="ellipse40713" class="st11" cx="366.9" cy="84.4" rx="2.8" ry="2.7"/>
	<path id="rect40715" inkscape:connector-curvature="0" sodipodi:nodetypes="ccccc" class="st13" d="M362.9,88.5h8.8l2.6,13.2h-14.2
		L362.9,88.5z"/>
	<rect id="rect40717" x="364.9" y="101.6" class="st13" width="4.5" height="9"/>
</g>
<rect id="rect1220" x="197.6" y="76.2" class="st14" width="72.4" height="14.5"/>
<text transform="matrix(1 0 0 1 205.9219 86.1777)" class="st15 st16">REGISTRATION</text>
<rect id="rect1493" x="535.6" y="401.5" class="st17" width="86.5" height="14.5"/>
<text transform="matrix(1 0 0 1 557.918 411.0957)" class="st15 st16">HELP DESK</text>
</svg>
