<?xml version="1.0" encoding="utf-8"?>
<!-- Generator: Adobe Illustrator 23.0.1, SVG Export Plug-In . SVG Version: 6.00 Build 0)  -->
<svg version="1.1" id="Layer_1" xmlns="http://www.w3.org/2000/svg" xmlns:xlink="http://www.w3.org/1999/xlink" x="0px" y="0px"
	 viewBox="0 0 524.34 185.39" style="enable-background:new 0 0 524.34 185.39;" xml:space="preserve">
<style type="text/css">
	.st0{opacity:0.5;}
	.st1{fill:#8FBEFF;}
	.st2{fill:#036BFF;}
</style>
<g>
	<g class="st0">
		<path class="st1" d="M42.35,110.69c-14.08-7.87-28.16-15.75-42.24-23.62C0.07,67.59,0.04,48.11,0,28.62
			C16.62,19.08,33.24,9.54,49.86,0c17.18,9.67,34.35,19.35,51.53,29.02c0,19.35,0,38.7,0,58.05c-10.01,5.76-20.02,11.52-30.03,17.28
			c0.04,15.17,0.08,30.34,0.11,45.51c12.83,7.31,25.67,14.61,38.5,21.92c12.83-7.21,25.67-14.41,38.5-21.62
			c0.07-15.37,0.14-30.75,0.21-46.12c-9.93-5.75-19.87-11.51-29.8-17.26c0-4.07,0-8.14,0-12.22c13.87,7.57,27.73,15.15,41.6,22.72
			c-0.05,19.9-0.11,39.8-0.16,59.69c-16.68,9.48-33.37,18.95-50.05,28.43c-16.88-9.58-33.76-19.15-50.64-28.73
			c-0.03-19.62-0.06-39.25-0.09-58.87c9.9-5.95,19.8-11.89,29.71-17.84c0-14.9,0-29.81,0-44.71c-12.93-7.41-25.86-14.81-38.8-22.22
			c-12.73,7.11-25.47,14.22-38.2,21.32c-0.01,15.39-0.03,30.79-0.04,46.18c10.05,5.82,20.1,11.64,30.14,17.46
			C42.35,102.23,42.35,106.46,42.35,110.69z"/>
		<polygon class="st1" points="27.38,45.19 27.38,72.62 51.13,86.33 74.89,72.62 74.89,45.19 51.13,31.48 		"/>
		<polygon class="st1" points="86.13,113.11 86.13,140.54 109.89,154.25 133.64,140.54 133.64,113.11 109.89,99.39 		"/>
	</g>
	<g>
		<path class="st2" d="M57.68,106.6h7.06V58.69h-7.06V45.22h32.83c3.56,0,6.72,0.5,9.46,1.5c2.74,1,5.06,2.35,6.95,4.06
			s3.32,3.76,4.28,6.15c0.96,2.39,1.44,4.97,1.44,7.75v1.28c0,4.28-1.19,7.7-3.58,10.26c-2.39,2.57-5.4,4.35-9.04,5.35v1.92
			c3.64,1,6.65,2.8,9.04,5.4c2.39,2.6,3.58,6.04,3.58,10.32v1.28c0,2.78-0.48,5.37-1.44,7.75c-0.96,2.39-2.39,4.45-4.28,6.2
			c-1.89,1.75-4.21,3.12-6.95,4.12c-2.74,1-5.9,1.5-9.46,1.5H57.68V106.6z M78.85,75.8h10.27c2.99,0,5.42-0.62,7.27-1.87
			c1.85-1.25,2.78-3.37,2.78-6.36v-0.64c0-3-0.93-5.11-2.78-6.36c-1.86-1.25-4.28-1.87-7.27-1.87H78.85V75.8z M78.85,106.6h10.27
			c2.99,0,5.42-0.64,7.27-1.93c1.85-1.28,2.78-3.42,2.78-6.42v-0.64c0-2.99-0.93-5.13-2.78-6.42c-1.86-1.28-4.28-1.93-7.27-1.93
			H78.85V106.6z"/>
		<path class="st2" d="M165.68,67.03h13.47v53.04h-13.47v-7.7h-1.93c-2.35,6.13-7.42,9.19-15.19,9.19c-2.64,0-5.1-0.43-7.38-1.28
			c-2.28-0.86-4.28-2.17-5.99-3.96c-1.71-1.78-3.05-4.01-4.01-6.68c-0.96-2.67-1.44-5.83-1.44-9.46V67.03h13.47V97.4
			c0,3.78,0.89,6.72,2.67,8.82c1.78,2.1,4.45,3.15,8.02,3.15c4.06,0,7.04-1.3,8.93-3.9c1.89-2.6,2.83-6.15,2.83-10.64V67.03z"/>
		<path class="st2" d="M199.36,107.24h17.96V79.86h-16.68V67.03h30.15v40.21h15.4v12.83h-46.84V107.24z M234.12,51.31
			c0,1.43-0.27,2.76-0.8,4.01c-0.54,1.25-1.27,2.32-2.19,3.21c-0.93,0.89-2.01,1.6-3.26,2.14c-1.25,0.53-2.55,0.8-3.9,0.8
			c-1.43,0-2.75-0.27-3.96-0.8c-1.21-0.54-2.28-1.25-3.21-2.14c-0.93-0.89-1.66-1.96-2.19-3.21c-0.53-1.25-0.8-2.58-0.8-4.01
			c0-1.42,0.27-2.76,0.8-4.01c0.54-1.25,1.27-2.32,2.19-3.21c0.93-0.89,1.99-1.6,3.21-2.14c1.21-0.53,2.53-0.8,3.96-0.8
			c1.35,0,2.65,0.27,3.9,0.8c1.25,0.54,2.34,1.25,3.26,2.14c0.93,0.89,1.66,1.96,2.19,3.21C233.85,48.55,234.12,49.89,234.12,51.31z
			"/>
		<path class="st2" d="M266.73,107.24h18.61V58.05h-17.96V45.22h31.44v62.02h17.32v12.83h-49.4V107.24z"/>
		<path class="st2" d="M373.77,112.38h-1.93c-0.57,1.21-1.27,2.37-2.08,3.47c-0.82,1.11-1.89,2.08-3.21,2.94
			c-1.32,0.86-2.89,1.53-4.71,2.03c-1.82,0.5-4.01,0.75-6.58,0.75c-3.28,0-6.33-0.59-9.14-1.76c-2.82-1.18-5.28-2.92-7.38-5.24
			c-2.1-2.32-3.74-5.15-4.92-8.5c-1.18-3.35-1.76-7.2-1.76-11.55v-1.93c0-4.28,0.62-8.09,1.87-11.44c1.25-3.35,2.96-6.18,5.13-8.5
			c2.17-2.32,4.71-4.08,7.59-5.29c2.89-1.21,5.94-1.82,9.14-1.82c4.28,0,7.66,0.8,10.16,2.41c2.49,1.6,4.45,3.87,5.88,6.79h1.93
			V45.22h13.47v74.86h-13.47V112.38z M359.66,108.74c4.2,0,7.61-1.34,10.21-4.01c2.6-2.68,3.9-6.18,3.9-10.53v-1.28
			c0-4.35-1.3-7.86-3.9-10.53c-2.6-2.67-6.01-4.01-10.21-4.01c-4.21,0-7.61,1.3-10.21,3.9c-2.6,2.6-3.9,6.15-3.9,10.64v1.28
			c0,4.49,1.3,8.04,3.9,10.64C352.05,107.44,355.45,108.74,359.66,108.74z"/>
		<path class="st2" d="M423.82,82.22h32.08v37.86h-12.83v-8.34h-1.93c-0.86,2.78-2.5,5.12-4.92,7c-2.42,1.89-6.06,2.83-10.91,2.83
			c-3.42,0-6.63-0.64-9.62-1.92c-3-1.28-5.6-3.19-7.81-5.72c-2.21-2.53-3.96-5.67-5.24-9.41c-1.28-3.74-1.93-8.11-1.93-13.1V73.88
			c0-4.85,0.69-9.14,2.08-12.88c1.39-3.74,3.32-6.9,5.77-9.46c2.46-2.57,5.4-4.51,8.82-5.83c3.42-1.32,7.2-1.98,11.34-1.98
			c4.28,0,8.09,0.69,11.44,2.08c3.35,1.39,6.2,3.32,8.55,5.77c2.35,2.46,4.13,5.35,5.35,8.66c1.21,3.32,1.82,6.86,1.82,10.64v1.28
			h-14.11v-1.28c0-4.49-1.16-7.89-3.48-10.21c-2.32-2.32-5.58-3.48-9.79-3.48c-3.99,0-7.27,1.34-9.84,4.01
			c-2.57,2.67-3.85,7.26-3.85,13.74v15.83c0,11.55,4.71,17.33,14.12,17.33c4.2,0,7.4-1.12,9.57-3.37c2.17-2.25,3.26-5.26,3.26-9.04
			h-17.96V82.22z"/>
		<path class="st2" d="M470.44,45.22h53.89v13.48h-19.89v61.38h-14.12V58.69h-19.89V45.22z"/>
	</g>
</g>
</svg>
