<svg id="Layer_1" data-name="Layer 1" xmlns="http://www.w3.org/2000/svg" xmlns:xlink="http://www.w3.org/1999/xlink" viewBox="0 0 612 792"><defs><style>.cls-1,.cls-3,.cls-4,.cls-5{fill:none;}.cls-2{clip-path:url(#clip-path);}.cls-3{stroke:#000;}.cls-3,.cls-4,.cls-5{stroke-linecap:round;stroke-linejoin:round;stroke-width:0.72px;}.cls-4{stroke:#767676;}.cls-5{stroke:#dbdbdb;}.cls-12,.cls-24,.cls-6,.cls-7{isolation:isolate;font-family:Barlow-Regular, Barlow;}.cls-6{font-size:22.27px;}.cls-7{font-size:7.42px;}.cls-8{letter-spacing:-0.07em;}.cls-9{letter-spacing:-0.01em;}.cls-10{letter-spacing:-0.01em;}.cls-11{letter-spacing:0em;}.cls-12{font-size:7.42px;}.cls-13{letter-spacing:0em;}.cls-14{letter-spacing:-0.01em;}.cls-15{letter-spacing:0em;}.cls-16{letter-spacing:0em;}.cls-17{letter-spacing:0em;}.cls-18{letter-spacing:-0.05em;}.cls-19{letter-spacing:-0.01em;}.cls-20{letter-spacing:-0.01em;}.cls-21{letter-spacing:-0.01em;}.cls-22{letter-spacing:0em;}.cls-23{letter-spacing:-0.01em;}.cls-24{font-size:8.91px;fill:#dbdbdb;}.cls-25{letter-spacing:-0.05em;}.cls-26{letter-spacing:-0.01em;}.cls-27{letter-spacing:-0.01em;}.cls-28{letter-spacing:0em;}.cls-29{letter-spacing:-0.01em;}.cls-30{letter-spacing:0em;}.cls-31{letter-spacing:0em;}</style><clipPath id="clip-path"><polyline class="cls-1" points="-144 978.4 756 978.4 756 -186.3 -144 -186.3 -144 978.4"/></clipPath></defs><title>Artboard 1</title><g class="cls-2"><polyline class="cls-3" points="499.5 334.7 499.5 349 482.6 349 482.6 343.8 499.5 334.7"/></g><g class="cls-2"><line class="cls-3" x1="494.7" y1="337.3" x2="499.5" y2="337.3"/></g><g class="cls-2"><line class="cls-3" x1="489.9" y1="339.9" x2="499.5" y2="339.9"/></g><g class="cls-2"><line class="cls-3" x1="485.1" y1="342.5" x2="499.5" y2="342.5"/></g><g class="cls-2"><line class="cls-3" x1="482.6" y1="345.1" x2="499.5" y2="345.1"/></g><g class="cls-2"><line class="cls-3" x1="482.6" y1="347.7" x2="499.5" y2="347.7"/></g><g class="cls-2"><path class="cls-3" d="M252.3,87.6a2.3,2.3,0,1,0-2.3-2.3,2.26,2.26,0,0,0,2.3,2.3"/></g><g class="cls-2"><path d="M475.6,149.5l44.5,39.3L478.2,147Zm41,41-41-41,44.5,39.3Z"/></g><g class="cls-2"><path class="cls-1" d="M475.6,149.5l44.5,39.3L478.2,147Zm41,41-41-41,44.5,39.3Z"/></g><g class="cls-2"><path d="M279.1,106.5l76.8-81.9-79.4,79.3Zm76.8-76.7-76.8,76.8,76.8-81.9v5.1Z"/></g><g class="cls-2"><path class="cls-1" d="M279.1,106.5l76.8-81.9-79.4,79.3Zm76.8-76.7-76.8,76.8,76.8-81.9v5.1Z"/></g><g class="cls-2"><polygon points="267.7 116.5 267.7 112.8 269.6 114.6 267.7 116.5"/></g><g class="cls-2"><polygon class="cls-1" points="267.7 116.5 267.7 112.8 269.6 114.6 267.7 116.5"/></g><g class="cls-2"><polygon points="267.7 116.5 267.7 117.9 267 117.2 267.7 116.5"/></g><g class="cls-2"><polygon class="cls-1" points="267.7 116.5 267.7 117.9 267 117.2 267.7 116.5"/></g><g class="cls-2"><path d="M243.5,93.7l8.8-14L240.9,91.1Zm8.8-8.8-8.8,8.8,8.8-14Z"/></g><g class="cls-2"><path class="cls-1" d="M243.5,93.7l8.8-14L240.9,91.1Zm8.8-8.8-8.8,8.8,8.8-14Z"/></g><g class="cls-2"><path d="M252.3,84.9l5.5.4-5.5-5.5v5.1Zm.3.3-.4-.4,5.5.4Z"/></g><g class="cls-2"><path class="cls-1" d="M252.3,84.9l5.5.4-5.5-5.5v5.1Zm.3.3-.4-.4,5.5.4Z"/></g><g class="cls-2"><path d="M243.5,93.7l2.9-2.2-.4-.4Zm.3.4-.3-.4,2.9-2.2Z"/></g><g class="cls-2"><path class="cls-1" d="M243.5,93.7l2.9-2.2-.4-.4Zm.3.4-.3-.4,2.9-2.2Z"/></g><g class="cls-2"><path d="M252.6,85.2,249,94l8.8-8.8Zm-8.8,8.9,8.8-8.8L249,94.1Z"/></g><g class="cls-2"><path class="cls-1" d="M252.6,85.2,249,94l8.8-8.8Zm-8.8,8.9,8.8-8.8L249,94.1Z"/></g><g class="cls-2"><path class="cls-3" d="M255.8,105.9a9.24,9.24,0,0,0,0-13.2"/></g><g class="cls-2"><line class="cls-3" x1="255.8" y1="92.7" x2="249.2" y2="99.4"/></g><g class="cls-2"><path class="cls-3" d="M269,106a9.24,9.24,0,0,0-13.2,0"/></g><g class="cls-2"><line class="cls-3" x1="269" y1="106" x2="262.4" y2="112.6"/></g><g class="cls-2"><polygon points="481.1 367 483.2 369.1 481.1 369.1 481.1 367"/></g><g class="cls-2"><polygon class="cls-1" points="481.1 367 483.2 369.1 481.1 369.1 481.1 367"/></g><g class="cls-2"><polygon points="481.1 367 479.6 365.5 481.1 365.5 481.1 367"/></g><g class="cls-2"><polygon class="cls-1" points="481.1 367 479.6 365.5 481.1 365.5 481.1 367"/></g><g class="cls-2"><path d="M516.5,307.5l3.6,61.7V307.5Zm0,58v-58l3.6,61.7Z"/></g><g class="cls-2"><path class="cls-1" d="M516.5,307.5l3.6,61.7V307.5Zm0,58v-58l3.6,61.7Z"/></g><g class="cls-2"><path d="M516.5,365.5l-35.4,3.6h39Zm-35.4,0h35.4l-35.4,3.6Z"/></g><g class="cls-2"><path class="cls-1" d="M516.5,365.5l-35.4,3.6h39Zm-35.4,0h35.4l-35.4,3.6Z"/></g><g class="cls-2"><polyline class="cls-3" points="516.2 345.7 516.2 307.6 498.5 307.6 498.5 345.7 516.2 345.7"/></g><g class="cls-2"><line class="cls-3" x1="498.5" y1="343.1" x2="516.2" y2="343.1"/></g><g class="cls-2"><line class="cls-3" x1="498.5" y1="340.5" x2="516.2" y2="340.5"/></g><g class="cls-2"><line class="cls-3" x1="498.5" y1="338" x2="516.2" y2="338"/></g><g class="cls-2"><line class="cls-3" x1="498.5" y1="335.4" x2="516.2" y2="335.4"/></g><g class="cls-2"><line class="cls-3" x1="498.5" y1="332.8" x2="516.2" y2="332.8"/></g><g class="cls-2"><line class="cls-3" x1="498.5" y1="330.2" x2="516.2" y2="330.2"/></g><g class="cls-2"><line class="cls-3" x1="498.5" y1="327.5" x2="516.2" y2="327.5"/></g><g class="cls-2"><line class="cls-3" x1="498.5" y1="324.9" x2="516.2" y2="324.9"/></g><g class="cls-2"><line class="cls-3" x1="498.5" y1="322.3" x2="516.2" y2="322.3"/></g><g class="cls-2"><line class="cls-3" x1="498.5" y1="319.8" x2="516.2" y2="319.8"/></g><g class="cls-2"><line class="cls-3" x1="498.5" y1="317.2" x2="516.2" y2="317.2"/></g><g class="cls-2"><line class="cls-3" x1="498.5" y1="314.6" x2="516.2" y2="314.6"/></g><g class="cls-2"><line class="cls-3" x1="498.5" y1="312" x2="516.2" y2="312"/></g><g class="cls-2"><line class="cls-3" x1="498.5" y1="309.4" x2="516.2" y2="309.4"/></g><g class="cls-2"><path d="M514.9,294.6l5.2.1-3.7-3.7Zm1.6,1.5-1.5-1.5,5.2.1Z"/></g><g class="cls-2"><path class="cls-1" d="M514.9,294.6l5.2.1-3.7-3.7Zm1.6,1.5-1.5-1.5,5.2.1Z"/></g><g class="cls-2"><path d="M513.8,294.6l2.6-3.6h-1.1Zm1.1,0h-1.2l2.6-3.6Z"/></g><g class="cls-2"><path class="cls-1" d="M513.8,294.6l2.6-3.6h-1.1Zm1.1,0h-1.2l2.6-3.6Z"/></g><g class="cls-2"><path d="M516.2,190.9l.3,1.5.7-.7Zm-.3.2.2-.2.3,1.5Z"/></g><g class="cls-2"><path class="cls-1" d="M516.2,190.9l.3,1.5.7-.7Zm-.3.2.2-.2.3,1.5Z"/></g><g class="cls-2"><path d="M515.9,191.1l-.6,1.3h1.1Zm-2.1,0H516l-.6,1.3Z"/></g><g class="cls-2"><path class="cls-1" d="M515.9,191.1l-.6,1.3h1.1Zm-2.1,0H516l-.6,1.3Z"/></g><g class="cls-2"><path d="M515.3,192.5l-1.5,1.2h1.5Zm-1.5-1.4,1.5,1.3-1.5,1.2Z"/></g><g class="cls-2"><path class="cls-1" d="M515.3,192.5l-1.5,1.2h1.5Zm-1.5-1.4,1.5,1.3-1.5,1.2Z"/></g><g class="cls-2"><path d="M515.3,211.9l-1.5-2.6v2.6Zm0-2.7v2.6l-1.5-2.6Z"/></g><g class="cls-2"><path class="cls-1" d="M515.3,211.9l-1.5-2.6v2.6Zm0-2.7v2.6l-1.5-2.6Z"/></g><g class="cls-2"><path d="M515.3,231.3l-1.5-.8v.8Zm0-.7v.8l-1.5-.8Z"/></g><g class="cls-2"><path class="cls-1" d="M515.3,231.3l-1.5-.8v.8Zm0-.7v.8l-1.5-.8Z"/></g><g class="cls-2"><path d="M515.3,250.8l-1.5-.8v.8Zm0-.8v.8l-1.5-.8Z"/></g><g class="cls-2"><path class="cls-1" d="M515.3,250.8l-1.5-.8v.8Zm0-.8v.8l-1.5-.8Z"/></g><g class="cls-2"><path d="M515.3,272.1l-1.5-2.6v2.6Zm0-2.6v2.6l-1.5-2.6Z"/></g><g class="cls-2"><path class="cls-1" d="M515.3,272.1l-1.5-2.6v2.6Zm0-2.6v2.6l-1.5-2.6Z"/></g><g class="cls-2"><path d="M513.8,287.7l1.5,3.3v-3.3Zm0,6.9v-6.9l1.5,3.3Z"/></g><g class="cls-2"><path class="cls-1" d="M513.8,287.7l1.5,3.3v-3.3Zm0,6.9v-6.9l1.5,3.3Z"/></g><g class="cls-2"><path class="cls-3" d="M513.8,221.2a9.28,9.28,0,0,0,9.3-9.3"/></g><g class="cls-2"><line class="cls-3" x1="523.2" y1="211.9" x2="513.8" y2="211.9"/></g><g class="cls-2"><path class="cls-3" d="M523.2,230.5a9.28,9.28,0,0,0-9.3-9.3"/></g><g class="cls-2"><line class="cls-3" x1="523.2" y1="230.6" x2="513.8" y2="230.6"/></g><g class="cls-2"><path class="cls-3" d="M513.8,240.7a9.28,9.28,0,0,0,9.3-9.3"/></g><g class="cls-2"><line class="cls-3" x1="523.2" y1="231.3" x2="513.8" y2="231.3"/></g><g class="cls-2"><path class="cls-3" d="M523.2,250a9.28,9.28,0,0,0-9.3-9.3"/></g><g class="cls-2"><line class="cls-3" x1="523.2" y1="250" x2="513.8" y2="250"/></g><g class="cls-2"><path class="cls-3" d="M513.8,260.1a9.28,9.28,0,0,0,9.3-9.3"/></g><g class="cls-2"><line class="cls-3" x1="523.2" y1="250.8" x2="513.8" y2="250.8"/></g><g class="cls-2"><path class="cls-3" d="M523.2,269.5a9.28,9.28,0,0,0-9.3-9.3"/></g><g class="cls-2"><line class="cls-3" x1="523.2" y1="269.5" x2="513.8" y2="269.5"/></g><g class="cls-2"><line class="cls-3" x1="515.3" y1="209.2" x2="515.3" y2="193.7"/></g><g class="cls-2"><line class="cls-3" x1="514.6" y1="209.2" x2="514.6" y2="193.7"/></g><g class="cls-2"><line class="cls-3" x1="513.8" y1="209.2" x2="513.8" y2="193.7"/></g><g class="cls-2"><line class="cls-3" x1="515.3" y1="287.7" x2="515.3" y2="272.1"/></g><g class="cls-2"><line class="cls-3" x1="514.6" y1="287.7" x2="514.6" y2="272.1"/></g><g class="cls-2"><line class="cls-3" x1="513.8" y1="287.7" x2="513.8" y2="272.1"/></g><g class="cls-2"><line class="cls-3" x1="519.2" y1="187.9" x2="516.6" y2="190.5"/></g><g class="cls-2"><path d="M479.6,378.6l-1.6,3.6h5.2Zm-.3,0h.3l-1.6,3.6Z"/></g><g class="cls-2"><path class="cls-1" d="M479.6,378.6l-1.6,3.6h5.2Zm-.3,0h.3l-1.6,3.6Z"/></g><g class="cls-2"><polygon points="478.7 377.1 478 378.4 478 377.1 478.7 377.1"/></g><g class="cls-2"><polygon class="cls-1" points="478.7 377.1 478 378.4 478 377.1 478.7 377.1"/></g><g class="cls-2"><polygon points="478.7 377.1 479.3 376 479.3 377.1 478.7 377.1"/></g><g class="cls-2"><polygon class="cls-1" points="478.7 377.1 479.3 376 479.3 377.1 478.7 377.1"/></g><g class="cls-2"><path d="M479.6,377.1l3.6,5.2v-5.2Zm0,1.5v-1.5l3.6,5.2Z"/></g><g class="cls-2"><path class="cls-1" d="M479.6,377.1l3.6,5.2v-5.2Zm0,1.5v-1.5l3.6,5.2Z"/></g><g class="cls-2"><path d="M478.3,376l-.6,2.4h.6Zm-.5,0h.6l-.6,2.4Z"/></g><g class="cls-2"><path class="cls-1" d="M478.3,376l-.6,2.4h.6Zm-.5,0h.6l-.6,2.4Z"/></g><g class="cls-2"><line class="cls-3" x1="477.8" y1="378.4" x2="477.8" y2="376"/></g><g class="cls-2"><path d="M477.8,378.4l-.3-.8v.8Zm0-.8v.8l-.3-.8Z"/></g><g class="cls-2"><path class="cls-1" d="M477.8,378.4l-.3-.8v.8Zm0-.8v.8l-.3-.8Z"/></g><g class="cls-2"><path d="M471.3,377.6l-.3.8h.3Zm-.3,0h.3l-.3.8Z"/></g><g class="cls-2"><path class="cls-1" d="M471.3,377.6l-.3.8h.3Zm-.3,0h.3l-.3.8Z"/></g><g class="cls-2"><line class="cls-3" x1="471" y1="378.4" x2="471" y2="376"/></g><g class="cls-2"><path d="M471,376l-.2,2.4h.2Zm-4.1,0H471l-.2,2.4Z"/></g><g class="cls-2"><path class="cls-1" d="M471,376l-.2,2.4h.2Zm-4.1,0H471l-.2,2.4Z"/></g><g class="cls-2"><path d="M466.9,376.9l3.9,5.2v-5.2Zm0,4.1v-4l3.9,5.2Z"/></g><g class="cls-2"><path class="cls-1" d="M466.9,376.9l3.9,5.2v-5.2Zm0,4.1v-4l3.9,5.2Z"/></g><g class="cls-2"><path d="M453.1,394.8v5.1l2.5-2.5Zm-1.3,1.2,1.3-1.3v5.1Z"/></g><g class="cls-2"><path class="cls-1" d="M453.1,394.8v5.1l2.5-2.5Zm-1.3,1.2,1.3-1.3v5.1Z"/></g><g class="cls-2"><polygon points="447.8 397.5 449.2 399.9 447.8 399.9 447.8 397.5"/></g><g class="cls-2"><polygon class="cls-1" points="447.8 397.5 449.2 399.9 447.8 399.9 447.8 397.5"/></g><g class="cls-2"><polygon points="447.8 397.5 446.9 396 447.8 396 447.8 397.5"/></g><g class="cls-2"><polygon class="cls-1" points="447.8 397.5 446.9 396 447.8 396 447.8 397.5"/></g><g class="cls-2"><path d="M446.9,396l2.3,4.1v-.3Zm0,4.2V396l2.3,4.1h-2.3Z"/></g><g class="cls-2"><path class="cls-1" d="M446.9,396l2.3,4.1v-.3Zm0,4.2V396l2.3,4.1h-2.3Z"/></g><g class="cls-2"><line class="cls-3" x1="449.2" y1="400.2" x2="446.9" y2="400.2"/></g><g class="cls-2"><path d="M479.3,378.6l-1.3-1.5v5.2Zm0-1.5v1.5l-1.3-1.5Z"/></g><g class="cls-2"><path class="cls-1" d="M479.3,378.6l-1.3-1.5v5.2Zm0-1.5v1.5l-1.3-1.5Z"/></g><g class="cls-2"><path d="M479.6,365.5l3.6,11.6v-7.9Zm0,11.6V365.5l3.6,11.6Z"/></g><g class="cls-2"><path class="cls-1" d="M479.6,365.5l3.6,11.6v-7.9Zm0,11.6V365.5l3.6,11.6Z"/></g><g class="cls-2"><path d="M479.3,439.9l3.9-3.6H478Zm.3,0h-.3l3.9-3.6Z"/></g><g class="cls-2"><path class="cls-1" d="M479.3,439.9l3.9-3.6H478Zm.3,0h-.3l3.9-3.6Z"/></g><g class="cls-2"><path d="M479.3,441.4l-1.3-5.2v5.2Zm0-1.5v1.5l-1.3-5.2Z"/></g><g class="cls-2"><path class="cls-1" d="M479.3,441.4l-1.3-5.2v5.2Zm0-1.5v1.5l-1.3-5.2Z"/></g><g class="cls-2"><line class="cls-3" x1="477.8" y1="442.5" x2="477.8" y2="440.2"/></g><g class="cls-2"><path d="M466.9,442.5l4.1-2.3h-.2Zm4.1,0h-4.1l4.1-2.3Z"/></g><g class="cls-2"><path class="cls-1" d="M466.9,442.5l4.1-2.3h-.2Zm4.1,0h-4.1l4.1-2.3Z"/></g><g class="cls-2"><line class="cls-3" x1="471" y1="442.5" x2="471" y2="440.2"/></g><g class="cls-2"><path d="M471,440.2l.3.8v-.8Zm0,.7v-.8l.3.8Z"/></g><g class="cls-2"><path class="cls-1" d="M471,440.2l.3.8v-.8Zm0,.7v-.8l.3.8Z"/></g><g class="cls-2"><path d="M477.5,440.9l.3-.8h-.3Zm.3,0h-.3l.3-.8Z"/></g><g class="cls-2"><path class="cls-1" d="M477.5,440.9l.3-.8h-.3Zm.3,0h-.3l.3-.8Z"/></g><g class="cls-2"><polygon points="478.7 441.4 478 441.4 478 440.2 478.7 441.4"/></g><g class="cls-2"><polygon class="cls-1" points="478.7 441.4 478 441.4 478 440.2 478.7 441.4"/></g><g class="cls-2"><polygon points="478.7 441.4 479.3 441.4 479.3 442.5 478.7 441.4"/></g><g class="cls-2"><polygon class="cls-1" points="478.7 441.4 479.3 441.4 479.3 442.5 478.7 441.4"/></g><g class="cls-2"><path d="M479.6,439.9l3.6,1.5v-5.2Zm0,1.5v-1.5l3.6,1.5Z"/></g><g class="cls-2"><path class="cls-1" d="M479.6,439.9l3.6,1.5v-5.2Zm0,1.5v-1.5l3.6,1.5Z"/></g><g class="cls-2"><path d="M466.9,437.6l3.9,2.6v-3.9Zm0,4.9v-4.9l3.9,2.6Z"/></g><g class="cls-2"><path class="cls-1" d="M466.9,437.6l3.9,2.6v-3.9Zm0,4.9v-4.9l3.9,2.6Z"/></g><g class="cls-2"><path d="M465.5,436.2l5.2.1-2.6-2.6Zm1.4,1.4-1.3-1.3,5.2.1Z"/></g><g class="cls-2"><path class="cls-1" d="M465.5,436.2l5.2.1-2.6-2.6Zm1.4,1.4-1.3-1.3,5.2.1Z"/></g><g class="cls-2"><path d="M446.9,422.5l6.1-3.9h-3.8Zm4.9,0h-4.9l6.1-3.9Z"/></g><g class="cls-2"><path class="cls-1" d="M446.9,422.5l6.1-3.9h-3.8Zm4.9,0h-4.9l6.1-3.9Z"/></g><g class="cls-2"><path d="M446.9,418.3l2.3.3v-.3Zm0,4.2v-4.2l2.3.3Z"/></g><g class="cls-2"><path class="cls-1" d="M446.9,418.3l2.3.3v-.3Zm0,4.2v-4.2l2.3.3Z"/></g><g class="cls-2"><line class="cls-3" x1="449.2" y1="418.3" x2="446.9" y2="418.3"/></g><g class="cls-2"><polygon points="478.7 607.1 478 608.4 478 607.1 478.7 607.1"/></g><g class="cls-2"><polygon class="cls-1" points="478.7 607.1 478 608.4 478 607.1 478.7 607.1"/></g><g class="cls-2"><polygon points="478.7 607.1 479.3 606.1 479.3 607.1 478.7 607.1"/></g><g class="cls-2"><polygon class="cls-1" points="478.7 607.1 479.3 606.1 479.3 607.1 478.7 607.1"/></g><g class="cls-2"><path d="M479.3,606.1l-1.5,2.3h.2Zm-1.5,0h1.5l-1.5,2.3Z"/></g><g class="cls-2"><path class="cls-1" d="M479.3,606.1l-1.5,2.3h.2Zm-1.5,0h1.5l-1.5,2.3Z"/></g><g class="cls-2"><line class="cls-3" x1="477.8" y1="608.4" x2="477.8" y2="606.1"/></g><g class="cls-2"><path d="M477.8,608.4l-.3-.8v.8Zm0-.8v.8l-.3-.8Z"/></g><g class="cls-2"><path class="cls-1" d="M477.8,608.4l-.3-.8v.8Zm0-.8v.8l-.3-.8Z"/></g><g class="cls-2"><path d="M471.3,607.6l-.3.8h.3Zm-.3,0h.3l-.3.8Z"/></g><g class="cls-2"><path class="cls-1" d="M471.3,607.6l-.3.8h.3Zm-.3,0h.3l-.3.8Z"/></g><g class="cls-2"><line class="cls-3" x1="471" y1="608.4" x2="471" y2="606.1"/></g><g class="cls-2"><path d="M471,606.1l-.2,2.3h.2Zm-4.1,0H471l-.2,2.3Z"/></g><g class="cls-2"><path class="cls-1" d="M471,606.1l-.2,2.3h.2Zm-4.1,0H471l-.2,2.3Z"/></g><g class="cls-2"><path d="M466.9,606.1l3.9,6.2v-3.9Zm0,4.9v-5l3.9,6.2Z"/></g><g class="cls-2"><path class="cls-1" d="M466.9,606.1l3.9,6.2v-3.9Zm0,4.9v-5l3.9,6.2Z"/></g><g class="cls-2"><path d="M453.1,624.8,453,630l2.6-2.6Zm-1.3,1.2,1.3-1.3-.1,5.2Z"/></g><g class="cls-2"><path class="cls-1" d="M453.1,624.8,453,630l2.6-2.6Zm-1.3,1.2,1.3-1.3-.1,5.2Z"/></g><g class="cls-2"><path d="M451.8,626l-2.6,3.9h3.9Zm-4.9,0h4.9l-2.6,3.9Z"/></g><g class="cls-2"><path class="cls-1" d="M451.8,626l-2.6,3.9h3.9Zm-4.9,0h4.9l-2.6,3.9Z"/></g><g class="cls-2"><path d="M446.9,626l2.3,4.2v-.3Zm0,4.2V626l2.3,4.2Z"/></g><g class="cls-2"><path class="cls-1" d="M446.9,626l2.3,4.2v-.3Zm0,4.2V626l2.3,4.2Z"/></g><g class="cls-2"><line class="cls-3" x1="449.2" y1="630.2" x2="446.9" y2="630.2"/></g><g class="cls-2"><path d="M479.6,607.1l3.6,5.2v-5.2Zm0,1.5v-1.5l3.6,5.2Z"/></g><g class="cls-2"><path class="cls-1" d="M479.6,607.1l3.6,5.2v-5.2Zm0,1.5v-1.5l3.6,5.2Z"/></g><g class="cls-2"><path d="M479.6,608.6l-1.6,3.6h5.2Zm-.3,0h.3l-1.6,3.6Z"/></g><g class="cls-2"><path class="cls-1" d="M479.6,608.6l-1.6,3.6h5.2Zm-.3,0h.3l-1.6,3.6Z"/></g><g class="cls-2"><path d="M449.5,638.5l3.6,3.9v-5.2Zm0,.3v-.3l3.6,3.9Z"/></g><g class="cls-2"><path class="cls-1" d="M449.5,638.5l3.6,3.9v-5.2Zm0,.3v-.3l3.6,3.9Z"/></g><g class="cls-2"><path d="M447.9,638.5l5.2-1.3h-5.2Zm1.6,0H448l5.2-1.3Z"/></g><g class="cls-2"><path class="cls-1" d="M447.9,638.5l5.2-1.3h-5.2Zm1.6,0H448l5.2-1.3Z"/></g><g class="cls-2"><path d="M446.9,636.9l2.3.3v-.3Zm0,1.6V637l2.3.3Z"/></g><g class="cls-2"><path class="cls-1" d="M446.9,636.9l2.3.3v-.3Zm0,1.6V637l2.3.3Z"/></g><g class="cls-2"><path d="M449.2,630.2l-.8.2h.8Zm-.8,0h.8l-.8.2Z"/></g><g class="cls-2"><path class="cls-1" d="M449.2,630.2l-.8.2h.8Zm-.8,0h.8l-.8.2Z"/></g><g class="cls-2"><path d="M448.4,636.7l.8.3v-.3Zm0,.2v-.3l.8.3Z"/></g><g class="cls-2"><path class="cls-1" d="M448.4,636.7l.8.3v-.3Zm0,.2v-.3l.8.3Z"/></g><g class="cls-2"><line class="cls-3" x1="449.2" y1="636.9" x2="446.9" y2="636.9"/></g><g class="cls-2"><path d="M479.3,608.6l-1.3-1.5v5.2Zm0-1.5v1.5l-1.3-1.5Z"/></g><g class="cls-2"><path class="cls-1" d="M479.3,608.6l-1.3-1.5v5.2Zm0-1.5v1.5l-1.3-1.5Z"/></g><g class="cls-2"><polygon points="447.9 637.9 447.9 637.2 449.2 637.2 447.9 637.9"/></g><g class="cls-2"><polygon class="cls-1" points="447.9 637.9 447.9 637.2 449.2 637.2 447.9 637.9"/></g><g class="cls-2"><polygon points="447.9 637.9 447.9 638.5 446.9 638.5 447.9 637.9"/></g><g class="cls-2"><polygon class="cls-1" points="447.9 637.9 447.9 638.5 446.9 638.5 447.9 637.9"/></g><g class="cls-2"><path d="M449.5,638.8l-1.5,3.6h5.2Zm-1.6,0h1.5l-1.5,3.6Z"/></g><g class="cls-2"><path class="cls-1" d="M449.5,638.8l-1.5,3.6h5.2Zm-1.6,0h1.5l-1.5,3.6Z"/></g><g class="cls-2"><path class="cls-3" d="M329.1,616.9a9.28,9.28,0,0,0,9.3-9.3"/></g><g class="cls-2"><line class="cls-3" x1="329.1" y1="616.9" x2="329.1" y2="607.6"/></g><g class="cls-2"><path class="cls-3" d="M339,616.9a9.28,9.28,0,0,0,9.3-9.3"/></g><g class="cls-2"><line class="cls-3" x1="339" y1="616.9" x2="339" y2="607.6"/></g><g class="cls-2"><path class="cls-3" d="M348.9,616.9a9.28,9.28,0,0,0,9.3-9.3"/></g><g class="cls-2"><line class="cls-3" x1="348.8" y1="616.9" x2="348.8" y2="607.6"/></g><g class="cls-2"><line class="cls-3" x1="471.3" y1="378.4" x2="477.5" y2="378.4"/></g><g class="cls-2"><line class="cls-3" x1="471.3" y1="378" x2="477.5" y2="378"/></g><g class="cls-2"><line class="cls-3" x1="471.3" y1="377.6" x2="477.5" y2="377.6"/></g><g class="cls-2"><line class="cls-3" x1="449.2" y1="407.9" x2="449.2" y2="400.4"/></g><g class="cls-2"><line class="cls-3" x1="448.8" y1="407.9" x2="448.8" y2="400.4"/></g><g class="cls-2"><line class="cls-3" x1="448.4" y1="407.9" x2="448.4" y2="400.4"/></g><g class="cls-2"><line class="cls-3" x1="449.2" y1="418.1" x2="449.2" y2="410.5"/></g><g class="cls-2"><line class="cls-3" x1="448.8" y1="418.1" x2="448.8" y2="410.5"/></g><g class="cls-2"><line class="cls-3" x1="448.4" y1="418.1" x2="448.4" y2="410.5"/></g><g class="cls-2"><line class="cls-3" x1="477.5" y1="440.2" x2="471.3" y2="440.2"/></g><g class="cls-2"><line class="cls-3" x1="477.5" y1="440.5" x2="471.3" y2="440.5"/></g><g class="cls-2"><line class="cls-3" x1="477.5" y1="440.9" x2="471.3" y2="440.9"/></g><g class="cls-2"><line class="cls-3" x1="471.3" y1="608.4" x2="477.5" y2="608.4"/></g><g class="cls-2"><line class="cls-3" x1="471.3" y1="608" x2="477.5" y2="608"/></g><g class="cls-2"><line class="cls-3" x1="471.3" y1="607.6" x2="477.5" y2="607.6"/></g><g class="cls-2"><line class="cls-3" x1="449.2" y1="636.7" x2="449.2" y2="630.4"/></g><g class="cls-2"><line class="cls-3" x1="448.8" y1="636.7" x2="448.8" y2="630.4"/></g><g class="cls-2"><line class="cls-3" x1="448.4" y1="636.7" x2="448.4" y2="630.4"/></g><g class="cls-2"><path d="M319.3,658.9l-.3,2.3h.3Zm-.3,0h.3l-.3,2.3Z"/></g><g class="cls-2"><path class="cls-1" d="M319.3,658.9l-.3,2.3h.3Zm-.3,0h.3l-.3,2.3Z"/></g><g class="cls-2"><line class="cls-3" x1="319" y1="661.3" x2="319" y2="658.9"/></g><g class="cls-2"><path d="M319,661.3l-.2-.8v.8Zm0-.8v.8l-.2-.8Z"/></g><g class="cls-2"><path class="cls-1" d="M319,661.3l-.2-.8v.8Zm0-.8v.8l-.2-.8Z"/></g><g class="cls-2"><path d="M312.6,660.5l-.3.8h.3Zm-.3,0h.3l-.3.8Z"/></g><g class="cls-2"><path class="cls-1" d="M312.6,660.5l-.3.8h.3Zm-.3,0h.3l-.3.8Z"/></g><g class="cls-2"><line class="cls-3" x1="312.6" y1="661.3" x2="318.8" y2="661.3"/></g><g class="cls-2"><line class="cls-3" x1="312.6" y1="660.9" x2="318.8" y2="660.9"/></g><g class="cls-2"><line class="cls-3" x1="312.6" y1="660.5" x2="318.8" y2="660.5"/></g><g class="cls-2"><line class="cls-3" x1="312.3" y1="661.3" x2="312.3" y2="658.9"/></g><g class="cls-2"><path d="M312.3,658.9l-.3,2.3h.3Zm-4.1,0h4.1l-.3,2.3Z"/></g><g class="cls-2"><path class="cls-1" d="M312.3,658.9l-.3,2.3h.3Zm-4.1,0h4.1l-.3,2.3Z"/></g><g class="cls-2"><path d="M308.2,658.9l3.9,6.2v-3.9Zm0,5v-5l3.9,6.2Z"/></g><g class="cls-2"><path class="cls-1" d="M308.2,658.9l3.9,6.2v-3.9Zm0,5v-5l3.9,6.2Z"/></g><g class="cls-2"><path d="M294.4,677.6l-.1,5.2,2.6-2.6Zm-1.3,1.3,1.3-1.3-.1,5.2Z"/></g><g class="cls-2"><path class="cls-1" d="M294.4,677.6l-.1,5.2,2.6-2.6Zm-1.3,1.3,1.3-1.3-.1,5.2Z"/></g><g class="cls-2"><path d="M288.2,678.9l2.4,4.2v-.3Zm0,4.2v-4.2l2.4,4.2Z"/></g><g class="cls-2"><path class="cls-1" d="M288.2,678.9l2.4,4.2v-.3Zm0,4.2v-4.2l2.4,4.2Z"/></g><g class="cls-2"><line class="cls-3" x1="290.5" y1="683.1" x2="288.2" y2="683.1"/></g><g class="cls-2"><path d="M293.1,678.9l-2.6,3.9h3.8Zm-4.9,0h5l-2.6,3.9Z"/></g><g class="cls-2"><path class="cls-1" d="M293.1,678.9l-2.6,3.9h3.8Zm-4.9,0h5l-2.6,3.9Z"/></g><g class="cls-2"><path d="M290.7,691.4l3.6,3.9v-5.2Zm0,.3v-.3l3.6,3.9Z"/></g><g class="cls-2"><path class="cls-1" d="M290.7,691.4l3.6,3.9v-5.2Zm0,.3v-.3l3.6,3.9Z"/></g><g class="cls-2"><path d="M289.2,691.4l5.2-1.3h-5.2Zm1.5,0h-1.5l5.2-1.3Z"/></g><g class="cls-2"><path class="cls-1" d="M289.2,691.4l5.2-1.3h-5.2Zm1.5,0h-1.5l5.2-1.3Z"/></g><g class="cls-2"><polyline class="cls-3" points="288.2 691.4 290.5 690.1 290.5 689.8 288.2 689.8 288.2 691.4"/></g><g class="cls-2"><path d="M290.5,683.1l-.8.2h.8Zm-.7,0h.8l-.8.2Z"/></g><g class="cls-2"><path class="cls-1" d="M290.5,683.1l-.8.2h.8Zm-.7,0h.8l-.8.2Z"/></g><g class="cls-2"><path d="M289.8,689.6l.8.3v-.3Zm0,.2v-.3l.8.3Z"/></g><g class="cls-2"><path class="cls-1" d="M289.8,689.6l.8.3v-.3Zm0,.2v-.3l.8.3Z"/></g><g class="cls-2"><line class="cls-3" x1="290.5" y1="689.6" x2="290.5" y2="683.3"/></g><g class="cls-2"><line class="cls-3" x1="290.1" y1="689.6" x2="290.1" y2="683.3"/></g><g class="cls-2"><line class="cls-3" x1="289.8" y1="689.6" x2="289.8" y2="683.3"/></g><g class="cls-2"><line class="cls-3" x1="290.5" y1="689.8" x2="288.2" y2="689.8"/></g><g class="cls-2"><polyline class="cls-3" points="289.2 691.4 289.2 690.1 290.5 690.1 288.2 691.4 289.2 691.4"/></g><g class="cls-2"><path d="M290.7,691.7l-1.5,3.6h5.2Zm-1.5,0h1.5l-1.5,3.6Z"/></g><g class="cls-2"><path class="cls-1" d="M290.7,691.7l-1.5,3.6h5.2Zm-1.5,0h1.5l-1.5,3.6Z"/></g><g class="cls-2"><path d="M109.6,691.7l-5.2,3.6h5.2Zm-1.6,0h1.6l-5.2,3.6Z"/></g><g class="cls-2"><path class="cls-1" d="M109.6,691.7l-5.2,3.6h5.2Zm-1.6,0h1.6l-5.2,3.6Z"/></g><g class="cls-2"><path d="M108,691.7l-3.6-1.5v5.2Zm0-.3v.3l-3.6-1.5Z"/></g><g class="cls-2"><path class="cls-1" d="M108,691.7l-3.6-1.5v5.2Zm0-.3v.3l-3.6-1.5Z"/></g><g class="cls-2"><polygon points="109.6 690.8 108.2 690.1 109.6 690.1 109.6 690.8"/></g><g class="cls-2"><polygon class="cls-1" points="109.6 690.8 108.2 690.1 109.6 690.1 109.6 690.8"/></g><g class="cls-2"><polygon points="109.6 690.8 110.6 691.4 109.6 691.4 109.6 690.8"/></g><g class="cls-2"><polygon class="cls-1" points="109.6 690.8 110.6 691.4 109.6 691.4 109.6 690.8"/></g><g class="cls-2"><path d="M110.6,691.4l-2.4-1.5v.3Zm0-1.6v1.5l-2.4-1.5Z"/></g><g class="cls-2"><path class="cls-1" d="M110.6,691.4l-2.4-1.5v.3Zm0-1.6v1.5l-2.4-1.5Z"/></g><g class="cls-2"><line class="cls-3" x1="110.6" y1="689.8" x2="108.2" y2="689.8"/></g><g class="cls-2"><path d="M108.2,689.8l.8-.3h-.8Zm.8,0h-.8l.8-.3Z"/></g><g class="cls-2"><path class="cls-1" d="M108.2,689.8l.8-.3h-.8Zm.8,0h-.8l.8-.3Z"/></g><g class="cls-2"><path d="M109,683.3l-.8-.2v.2Zm0-.2v.2l-.8-.2Z"/></g><g class="cls-2"><path class="cls-1" d="M109,683.3l-.8-.2v.2Zm0-.2v.2l-.8-.2Z"/></g><g class="cls-2"><line class="cls-3" x1="110.6" y1="683.1" x2="108.2" y2="683.1"/></g><g class="cls-2"><path d="M110.6,683.1l-2.4-.3v.3Zm0-4.2v4.2l-2.4-.3Z"/></g><g class="cls-2"><path class="cls-1" d="M110.6,683.1l-2.4-.3v.3Zm0-4.2v4.2l-2.4-.3Z"/></g><g class="cls-2"><path d="M73.7,657.1l-3.9,3.6H75Zm-.3,0h.3l-3.9,3.6Z"/></g><g class="cls-2"><path class="cls-1" d="M73.7,657.1l-3.9,3.6H75Zm-.3,0h.3l-3.9,3.6Z"/></g><g class="cls-2"><path d="M73.7,655.6l1.3,5.2v-5.2Zm0,1.5v-1.5l1.3,5.2Z"/></g><g class="cls-2"><path class="cls-1" d="M73.7,655.6l1.3,5.2v-5.2Zm0,1.5v-1.5l1.3,5.2Z"/></g><g class="cls-2"><path d="M75.3,654.5l-.2,2.3h.2Zm-1.6,0h1.5l-.2,2.3Z"/></g><g class="cls-2"><path class="cls-1" d="M75.3,654.5l-.2,2.3h.2Zm-1.6,0h1.5l-.2,2.3Z"/></g><g class="cls-2"><path d="M108,691.4l1.6-1.3h-5.2Zm1.6,0H108l1.6-1.3Z"/></g><g class="cls-2"><path class="cls-1" d="M108,691.4l1.6-1.3h-5.2Zm1.6,0H108l1.6-1.3Z"/></g><g class="cls-2"><polygon points="74.3 655.6 75 655.6 75 656.9 74.3 655.6"/></g><g class="cls-2"><polygon class="cls-1" points="74.3 655.6 75 655.6 75 656.9 74.3 655.6"/></g><g class="cls-2"><polygon points="74.3 655.6 73.7 655.6 73.7 654.5 74.3 655.6"/></g><g class="cls-2"><polygon class="cls-1" points="74.3 655.6 73.7 655.6 73.7 654.5 74.3 655.6"/></g><g class="cls-2"><path d="M73.4,657.1l-3.6-1.5v5.2Zm0-1.5v1.5l-3.6-1.5Z"/></g><g class="cls-2"><path class="cls-1" d="M73.4,657.1l-3.6-1.5v5.2Zm0-1.5v1.5l-3.6-1.5Z"/></g><g class="cls-2"><path d="M110.6,678.9l-6.2,3.9h3.9Zm-4.9,0h5l-6.2,3.9Z"/></g><g class="cls-2"><path class="cls-1" d="M110.6,678.9l-6.2,3.9h3.9Zm-4.9,0h5l-6.2,3.9Z"/></g><g class="cls-2"><path d="M86.2,659.4l-3.9-2.6v3.9Zm0-4.9v4.9l-3.9-2.6Z"/></g><g class="cls-2"><path class="cls-1" d="M86.2,659.4l-3.9-2.6v3.9Zm0-4.9v4.9l-3.9-2.6Z"/></g><g class="cls-2"><polyline class="cls-3" points="82 654.5 82 656.9 82.3 656.9 86.2 654.5 82 654.5 82 656.9"/></g><g class="cls-2"><path d="M82,656.9l-.3-.8v.8Zm0-.8v.8l-.3-.8Z"/></g><g class="cls-2"><path class="cls-1" d="M82,656.9l-.3-.8v.8Zm0-.8v.8l-.3-.8Z"/></g><g class="cls-2"><path d="M75.5,656.1l-.3.8h.3Zm-.2,0h.3l-.3.8Z"/></g><g class="cls-2"><path class="cls-1" d="M75.5,656.1l-.3.8h.3Zm-.2,0h.3l-.3.8Z"/></g><g class="cls-2"><line class="cls-3" x1="75.3" y1="656.9" x2="75.3" y2="654.5"/></g><g class="cls-2"><path d="M87.5,660.8l-5.2-.1,2.6,2.6Zm-1.3-1.4,1.3,1.3-5.2-.1Z"/></g><g class="cls-2"><path class="cls-1" d="M87.5,660.8l-5.2-.1,2.6,2.6Zm-1.3-1.4,1.3,1.3-5.2-.1Z"/></g><g class="cls-2"><line class="cls-3" x1="108.2" y1="683.3" x2="108.2" y2="689.6"/></g><g class="cls-2"><line class="cls-3" x1="108.6" y1="683.3" x2="108.6" y2="689.6"/></g><g class="cls-2"><line class="cls-3" x1="109" y1="683.3" x2="109" y2="689.6"/></g><g class="cls-2"><line class="cls-3" x1="75.5" y1="656.9" x2="81.8" y2="656.9"/></g><g class="cls-2"><line class="cls-3" x1="75.5" y1="656.5" x2="81.8" y2="656.5"/></g><g class="cls-2"><line class="cls-3" x1="75.5" y1="656.1" x2="81.8" y2="656.1"/></g><g class="cls-2"><path d="M73.4,480.3l-3.6-5.2v5.2Zm0-1.5v1.5l-3.6-5.2Z"/></g><g class="cls-2"><path class="cls-1" d="M73.4,480.3l-3.6-5.2v5.2Zm0-1.5v1.5l-3.6-5.2Z"/></g><g class="cls-2"><path d="M73.4,478.8l1.6-3.6H69.8Zm.3,0h-.3l1.6-3.6Z"/></g><g class="cls-2"><path class="cls-1" d="M73.4,478.8l1.6-3.6H69.8Zm.3,0h-.3l1.6-3.6Z"/></g><g class="cls-2"><polygon points="74.3 480.3 75 479 75 480.3 74.3 480.3"/></g><g class="cls-2"><polygon class="cls-1" points="74.3 480.3 75 479 75 480.3 74.3 480.3"/></g><g class="cls-2"><polygon points="74.3 480.3 73.7 481.4 73.7 480.3 74.3 480.3"/></g><g class="cls-2"><polygon class="cls-1" points="74.3 480.3 73.7 481.4 73.7 480.3 74.3 480.3"/></g><g class="cls-2"><path d="M516.5,296.1l3.6,2.1v-3.6Zm0,2.1v-2.1l3.6,2.1Z"/></g><g class="cls-2"><path class="cls-1" d="M516.5,296.1l3.6,2.1v-3.6Zm0,2.1v-2.1l3.6,2.1Z"/></g><g class="cls-2"><line class="cls-3" x1="479.3" y1="382.2" x2="479.3" y2="378.6"/></g><g class="cls-2"><path d="M466.9,381l1.3,3.9,2.6-2.6Zm-1.4,1.2,1.3-1.3,1.3,3.9Z"/></g><g class="cls-2"><path class="cls-1" d="M466.9,381l1.3,3.9,2.6-2.6Zm-1.4,1.2,1.3-1.3,1.3,3.9Z"/></g><g class="cls-2"><line class="cls-3" x1="479.3" y1="382.2" x2="465.5" y2="382.2"/></g><g class="cls-2"><path d="M453.7,394.1l1.9,3.3.7-.7Zm-.6.7.7-.7,1.9,3.3Z"/></g><g class="cls-2"><path class="cls-1" d="M453.7,394.1l1.9,3.3.7-.7Zm-.6.7.7-.7,1.9,3.3Z"/></g><g class="cls-2"><path d="M451.8,422.5l3.8-1.3-2.6-2.6Zm1.3,1.3-1.3-1.3,3.8-1.3Z"/></g><g class="cls-2"><path class="cls-1" d="M451.8,422.5l3.8-1.3-2.6-2.6Zm1.3,1.3-1.3-1.3,3.8-1.3Z"/></g><g class="cls-2"><line class="cls-3" x1="453.1" y1="423.8" x2="453.1" y2="394.8"/></g><g class="cls-2"><path d="M453.1,423.8l15.1,9.9-12.5-12.5Zm12.4,12.4L453,423.7l15.1,9.9Z"/></g><g class="cls-2"><path class="cls-1" d="M453.1,423.8l15.1,9.9-12.5-12.5Zm12.4,12.4L453,423.7l15.1,9.9Z"/></g><g class="cls-2"><polyline class="cls-3" points="479.3 439.9 479.3 436.2 465.5 436.2"/></g><g class="cls-2"><path d="M444.8,638.8l-84.1,3.6h84.1Zm-79.3,0h79.4l-84.1,3.6Z"/></g><g class="cls-2"><path class="cls-1" d="M444.8,638.8l-84.1,3.6h84.1Zm-79.3,0h79.4l-84.1,3.6Z"/></g><g class="cls-2"><line class="cls-3" x1="365.5" y1="642.4" x2="365.5" y2="638.8"/></g><g class="cls-2"><polygon points="364.1 608.6 360.8 611.2 360.8 608.6 364.1 608.6"/></g><g class="cls-2"><polygon class="cls-1" points="364.1 608.6 360.8 611.2 360.8 608.6 364.1 608.6"/></g><g class="cls-2"><polygon points="364.1 608.6 365.5 607.6 365.5 608.6 364.1 608.6"/></g><g class="cls-2"><polygon class="cls-1" points="364.1 608.6 365.5 607.6 365.5 608.6 364.1 608.6"/></g><g class="cls-2"><path d="M319.9,657.3l4.6,3.9v-3.9Zm0,1.6v-1.6l4.6,3.9Z"/></g><g class="cls-2"><path class="cls-1" d="M319.9,657.3l4.6,3.9v-3.9Zm0,1.6v-1.6l4.6,3.9Z"/></g><g class="cls-2"><polygon points="319.3 658.9 324.5 661.3 319.9 658.9 319.3 658.9"/></g><g class="cls-2"><polygon class="cls-1" points="319.3 658.9 324.5 661.3 319.9 658.9 319.3 658.9"/></g><g class="cls-2"><path d="M324.5,661.3l-5.2,3.9h5.2Zm-5.2-2.4,5.2,2.3-5.2,3.9Z"/></g><g class="cls-2"><path class="cls-1" d="M324.5,661.3l-5.2,3.9h5.2Zm-5.2-2.4,5.2,2.3-5.2,3.9Z"/></g><g class="cls-2"><path d="M319.9,607.6l4.6,34.8V611.2Zm0,34.8V607.6l4.6,34.8Z"/></g><g class="cls-2"><path class="cls-1" d="M319.9,607.6l4.6,34.8V611.2Zm0,34.8V607.6l4.6,34.8Z"/></g><g class="cls-2"><path d="M479.6,441.4l3.6,165.7V441.4Zm0,165.7V441.4l3.6,165.7Z"/></g><g class="cls-2"><path class="cls-1" d="M479.6,441.4l3.6,165.7V441.4Zm0,165.7V441.4l3.6,165.7Z"/></g><g class="cls-2"><path d="M324.9,607.6l-.4,3.6h.4Zm-5,0H325l-.4,3.6Z"/></g><g class="cls-2"><path class="cls-1" d="M324.9,607.6l-.4,3.6h.4Zm-5,0H325l-.4,3.6Z"/></g><g class="cls-2"><path d="M267.7,117.9l8.8-14-8.8,8.8Zm11.4-11.4-11.4,11.4,8.8-14Z"/></g><g class="cls-2"><path class="cls-1" d="M267.7,117.9l8.8-14-8.8,8.8Zm11.4-11.4-11.4,11.4,8.8-14Z"/></g><g class="cls-2"><line class="cls-3" x1="255.2" y1="82.6" x2="252.6" y2="85.2"/></g><g class="cls-2"><path d="M455.5,129.4,478.2,147,458,126.8Zm20.1,20.1-20.1-20.1L478.2,147Z"/></g><g class="cls-2"><path class="cls-1" d="M455.5,129.4,478.2,147,458,126.8Zm20.1,20.1-20.1-20.1L478.2,147Z"/></g><g class="cls-2"><path d="M163.6,336.7l61.2-66.3-66.5,66.5Zm66.3-66.3-66.3,66.3,61.2-66.3Z"/></g><g class="cls-2"><path class="cls-1" d="M163.6,336.7l61.2-66.3-66.5,66.5Zm66.3-66.3-66.3,66.3,61.2-66.3Z"/></g><g class="cls-2"><path d="M73.7,481.4l1.5-2.3H75Zm1.6,0H73.8l1.5-2.3Z"/></g><g class="cls-2"><path class="cls-1" d="M73.7,481.4l1.5-2.3H75Zm1.6,0H73.8l1.5-2.3Z"/></g><g class="cls-2"><line class="cls-3" x1="75.3" y1="481.4" x2="75.3" y2="479"/></g><g class="cls-2"><path d="M75.3,479l.2.8V479Zm0,.8V479l.2.8Z"/></g><g class="cls-2"><path class="cls-1" d="M75.3,479l.2.8V479Zm0,.8V479l.2.8Z"/></g><g class="cls-2"><path d="M81.9,479.8l.1-.8h-.2v.8Zm.1,0h-.2l.2-.8Z"/></g><g class="cls-2"><path class="cls-1" d="M81.9,479.8l.1-.8h-.2v.8Zm.1,0h-.2l.2-.8Z"/></g><g class="cls-2"><line class="cls-3" x1="81.9" y1="479" x2="75.5" y2="479"/></g><g class="cls-2"><line class="cls-3" x1="81.9" y1="479.4" x2="75.5" y2="479.4"/></g><g class="cls-2"><line class="cls-3" x1="81.9" y1="479.8" x2="75.5" y2="479.8"/></g><g class="cls-2"><line class="cls-3" x1="82" y1="481.4" x2="82" y2="479"/></g><g class="cls-2"><path d="M82,481.4l.3-2.3H82Zm4.2,0H82l.3-2.3Z"/></g><g class="cls-2"><path class="cls-1" d="M82,481.4l.3-2.3H82Zm4.2,0H82l.3-2.3Z"/></g><g class="cls-2"><path d="M86.2,481.4l-3.9-6.2v3.9Zm0-5v4.9l-3.9-6.2Z"/></g><g class="cls-2"><path class="cls-1" d="M86.2,481.4l-3.9-6.2v3.9Zm0-5v4.9l-3.9-6.2Z"/></g><g class="cls-2"><path d="M87.5,475.1,104.4,453,84.9,472.5ZM105.7,457,87.6,475.1,104.5,453Z"/></g><g class="cls-2"><path class="cls-1" d="M87.5,475.1,104.4,453,84.9,472.5ZM105.7,457,87.6,475.1,104.5,453Z"/></g><g class="cls-2"><path d="M156.6,347.3l-.6-2.8-.2.2Zm1.1-1.1-1.1,1.1-.6-2.8Z"/></g><g class="cls-2"><path class="cls-1" d="M156.6,347.3l-.6-2.8-.2.2Zm1.1-1.1-1.1,1.1-.6-2.8Z"/></g><g class="cls-2"><line class="cls-3" x1="157.7" y1="346.2" x2="156" y2="344.6"/></g><g class="cls-2"><path d="M156,344.6l.8.4-.6-.6Zm.6.5-.6-.6.8.4Z"/></g><g class="cls-2"><path class="cls-1" d="M156,344.6l.8.4-.6-.6Zm.6.5-.6-.6.8.4Z"/></g><g class="cls-2"><path d="M161.2,340.5l-.4-.7-.2.2Zm.2-.1-.2.2-.4-.7Z"/></g><g class="cls-2"><path class="cls-1" d="M161.2,340.5l-.4-.7-.2.2Zm.2-.1-.2.2-.4-.7Z"/></g><g class="cls-2"><line class="cls-3" x1="162.5" y1="341.5" x2="160.8" y2="339.8"/></g><g class="cls-2"><path d="M162.5,341.5l-1.5-1.8-.2.2Zm2.9-2.9-2.9,2.9-1.5-1.8Z"/></g><g class="cls-2"><path class="cls-1" d="M162.5,341.5l-1.5-1.8-.2.2Zm2.9-2.9-2.9,2.9-1.5-1.8Z"/></g><g class="cls-2"><path d="M73.7,478.8l1.3,1.5v-5.2Zm0,1.5v-1.5l1.3,1.5Z"/></g><g class="cls-2"><path class="cls-1" d="M73.7,478.8l1.3,1.5v-5.2Zm0,1.5v-1.5l1.3,1.5Z"/></g><g class="cls-2"><polygon points="156.3 346.7 155.8 344.8 157.1 346 156.3 346.7"/></g><g class="cls-2"><polygon class="cls-1" points="156.3 346.7 155.8 344.8 157.1 346 156.3 346.7"/></g><g class="cls-2"><polygon points="156.3 346.7 156.6 347.3 156.1 346.9 156.3 346.7"/></g><g class="cls-2"><polygon class="cls-1" points="156.3 346.7 156.6 347.3 156.1 346.9 156.3 346.7"/></g><g class="cls-2"><line class="cls-3" x1="160.6" y1="340" x2="156.2" y2="344.4"/></g><g class="cls-2"><line class="cls-3" x1="160.9" y1="340.3" x2="156.5" y2="344.7"/></g><g class="cls-2"><line class="cls-3" x1="161.2" y1="340.5" x2="156.8" y2="345"/></g><g class="cls-2"><line class="cls-3" x1="154.7" y1="345.5" x2="152.1" y2="342.9"/></g><g class="cls-2"><polyline class="cls-3" points="163.6 336.7 161 334.1 152.1 342.9"/></g><g class="cls-2"><path d="M73.4,482.3l-3.6-2v2Zm0-2v2l-3.6-2Z"/></g><g class="cls-2"><path class="cls-1" d="M73.4,482.3l-3.6-2v2Zm0-2v2l-3.6-2Z"/></g><g class="cls-2"><path d="M111.5,691.7l-1.9,3.6h1.9Zm-1.9,0h1.9l-1.9,3.6Z"/></g><g class="cls-2"><path class="cls-1" d="M111.5,691.7l-1.9,3.6h1.9Zm-1.9,0h1.9l-1.9,3.6Z"/></g><g class="cls-2"><path d="M516.5,298.2l3.6,9.2v-9.2Zm0,9.3v-9.2l3.6,9.2Z"/></g><g class="cls-2"><path class="cls-1" d="M516.5,298.2l3.6,9.2v-9.2Zm0,9.3v-9.2l3.6,9.2Z"/></g><g class="cls-2"><path d="M466.9,611l1.3,3.9,2.6-2.6Zm-1.4,1.3,1.3-1.3,1.3,3.9Z"/></g><g class="cls-2"><path class="cls-1" d="M466.9,611l1.3,3.9,2.6-2.6Zm-1.4,1.3,1.3-1.3,1.3,3.9Z"/></g><g class="cls-2"><polyline class="cls-3" points="479.3 608.6 479.3 612.3 465.5 612.3"/></g><g class="cls-2"><line class="cls-3" x1="453.1" y1="638.5" x2="449.5" y2="638.5"/></g><g class="cls-2"><path d="M465.5,612.3l-9.9,15,12.5-12.4Zm-12.4,12.5,12.4-12.5-9.9,15Z"/></g><g class="cls-2"><path class="cls-1" d="M465.5,612.3l-9.9,15,12.5-12.4Zm-12.4,12.5,12.4-12.5-9.9,15Z"/></g><g class="cls-2"><line class="cls-3" x1="453.1" y1="638.5" x2="453.1" y2="624.8"/></g><g class="cls-2"><path d="M308.2,663.9l1.3,3.9,2.6-2.6Zm-1.3,1.3,1.3-1.3,1.3,3.9Z"/></g><g class="cls-2"><path class="cls-1" d="M308.2,663.9l1.3,3.9,2.6-2.6Zm-1.3,1.3,1.3-1.3,1.3,3.9Z"/></g><g class="cls-2"><line class="cls-3" x1="306.9" y1="665.2" x2="319.3" y2="665.2"/></g><g class="cls-2"><line class="cls-3" x1="294.4" y1="691.4" x2="290.7" y2="691.4"/></g><g class="cls-2"><path d="M306.9,665.2l-9.9,15,12.5-12.4Zm-12.5,12.4,12.5-12.5-9.9,15Z"/></g><g class="cls-2"><path class="cls-1" d="M306.9,665.2l-9.9,15,12.5-12.4Zm-12.5,12.4,12.5-12.5-9.9,15Z"/></g><g class="cls-2"><line class="cls-3" x1="294.4" y1="691.4" x2="294.4" y2="677.6"/></g><g class="cls-2"><path d="M105.7,678.9l-3.9,1.3,2.6,2.6Zm-1.4-1.3,1.3,1.3-3.9,1.3Z"/></g><g class="cls-2"><path class="cls-1" d="M105.7,678.9l-3.9,1.3,2.6,2.6Zm-1.4-1.3,1.3,1.3-3.9,1.3Z"/></g><g class="cls-2"><line class="cls-3" x1="104.3" y1="691.4" x2="104.3" y2="677.6"/></g><g class="cls-2"><path d="M104.3,677.6,84.9,663.3l16.9,16.8ZM87.5,660.8l16.8,16.9L84.9,663.4Z"/></g><g class="cls-2"><path class="cls-1" d="M104.3,677.6,84.9,663.3l16.9,16.8ZM87.5,660.8l16.8,16.9L84.9,663.4Z"/></g><g class="cls-2"><polyline class="cls-3" points="87.5 660.8 73.7 660.8 73.7 657.1"/></g><g class="cls-2"><line class="cls-3" x1="108" y1="691.4" x2="104.3" y2="691.4"/></g><g class="cls-2"><path d="M86.2,476.4l-1.3-3.9-2.6,2.6Zm1.3-1.3-1.3,1.3-1.3-3.9Z"/></g><g class="cls-2"><path class="cls-1" d="M86.2,476.4l-1.3-3.9-2.6,2.6Zm1.3-1.3-1.3,1.3-1.3-3.9Z"/></g><g class="cls-2"><polyline class="cls-3" points="87.5 475.1 73.7 475.1 73.7 478.8"/></g><g class="cls-2"><path d="M105.7,457l1.8-3.9h-3.1Zm4.1,0h-4.1l1.8-3.9Z"/></g><g class="cls-2"><path class="cls-1" d="M105.7,457l1.8-3.9h-3.1Zm4.1,0h-4.1l1.8-3.9Z"/></g><g class="cls-2"><path d="M109.8,457l-2.3-4.1v.2Zm0-4.2v4.1l-2.3-4.1Z"/></g><g class="cls-2"><path class="cls-1" d="M109.8,457l-2.3-4.1v.2Zm0-4.2v4.1l-2.3-4.1Z"/></g><g class="cls-2"><line class="cls-3" x1="109.8" y1="452.8" x2="107.5" y2="452.8"/></g><g class="cls-2"><line class="cls-3" x1="107.5" y1="445.7" x2="107.5" y2="452.6"/></g><g class="cls-2"><line class="cls-3" x1="107.9" y1="445.7" x2="107.9" y2="452.6"/></g><g class="cls-2"><line class="cls-3" x1="108.2" y1="445.7" x2="108.2" y2="452.6"/></g><g class="cls-2"><line class="cls-3" x1="109.8" y1="436.2" x2="107.5" y2="436.2"/></g><g class="cls-2"><path d="M109.8,436.2l-2.3-.3v.3Zm0-4.2v4.2l-2.3-.3Z"/></g><g class="cls-2"><path class="cls-1" d="M109.8,436.2l-2.3-.3v.3Zm0-4.2v4.2l-2.3-.3Z"/></g><g class="cls-2"><path d="M109.8,432l-5.4,3.9h3.1Zm-4.1,0h4.1l-5.4,3.9Z"/></g><g class="cls-2"><path class="cls-1" d="M109.8,432l-5.4,3.9h3.1Zm-4.1,0h4.1l-5.4,3.9Z"/></g><g class="cls-2"><path d="M104.4,436l-4.4-9.5L97.5,429Zm1.3-4-1.3,3.9-4.4-9.5Z"/></g><g class="cls-2"><path class="cls-1" d="M104.4,436l-4.4-9.5L97.5,429Zm1.3-4-1.3,3.9-4.4-9.5Z"/></g><g class="cls-2"><path d="M93.4,419.8l-11.6-6.5,9,9Zm-6.5-6.5,6.5,6.5-11.6-6.5Z"/></g><g class="cls-2"><path class="cls-1" d="M93.4,419.8l-11.6-6.5,9,9Zm-6.5-6.5,6.5,6.5-11.6-6.5Z"/></g><g class="cls-2"><line class="cls-3" x1="107.5" y1="436.5" x2="107.5" y2="443.3"/></g><g class="cls-2"><line class="cls-3" x1="107.9" y1="436.5" x2="107.9" y2="443.3"/></g><g class="cls-2"><line class="cls-3" x1="108.2" y1="436.5" x2="108.2" y2="443.3"/></g><g class="cls-2"><path d="M107.5,444.5l.8-1.2h-.8Zm.7,0h-.8l.8-1.2Z"/></g><g class="cls-2"><path class="cls-1" d="M107.5,444.5l.8-1.2h-.8Zm.7,0h-.8l.8-1.2Z"/></g><g class="cls-2"><path d="M108.2,436.5l-.8-.2v.2Zm0-.3v.2l-.8-.2Z"/></g><g class="cls-2"><path class="cls-1" d="M108.2,436.5l-.8-.2v.2Zm0-.3v.2l-.8-.2Z"/></g><g class="cls-2"><path d="M129,371.2,153,342l-26.6,26.6Zm25.7-25.7L129,371.2,153,342Z"/></g><g class="cls-2"><path class="cls-1" d="M129,371.2,153,342l-26.6,26.6Zm25.7-25.7L129,371.2,153,342Z"/></g><g class="cls-2"><path d="M449.2,409.2l-.8,1.4h.8Zm-.8,0h.8l-.8,1.4Z"/></g><g class="cls-2"><path class="cls-1" d="M449.2,409.2l-.8,1.4h.8Zm-.8,0h.8l-.8,1.4Z"/></g><g class="cls-2"><path d="M448.4,418.1l.8.2v-.2Zm0,.2v-.2l.8.2Z"/></g><g class="cls-2"><path class="cls-1" d="M448.4,418.1l.8.2v-.2Zm0,.2v-.2l.8.2Z"/></g><g class="cls-2"><path d="M365.5,638.8l-4.7-30.1v33.8Zm0-30.2v30.1l-4.7-30.1Z"/></g><g class="cls-2"><path class="cls-1" d="M365.5,638.8l-4.7-30.1v33.8Zm0-30.2v30.1l-4.7-30.1Z"/></g><g class="cls-2"><path d="M447.9,638.8l-3.1,3.6h3.1Zm-3.1,0h3.1l-3.1,3.6Z"/></g><g class="cls-2"><path class="cls-1" d="M447.9,638.8l-3.1,3.6h3.1Zm-3.1,0h3.1l-3.1,3.6Z"/></g><g class="cls-2"><path d="M219.2,259.7l-16.2-11,13.6,13.6Zm-13.7-13.6,13.6,13.6-16.2-11Z"/></g><g class="cls-2"><path class="cls-1" d="M219.2,259.7l-16.2-11,13.6,13.6Zm-13.7-13.6,13.6,13.6-16.2-11Z"/></g><g class="cls-2"><path d="M164.9,338.1l-6.7-1.2,4,3.9Zm-1.3-1.4,1.4,1.4-6.7-1.2Z"/></g><g class="cls-2"><path class="cls-1" d="M164.9,338.1l-6.7-1.2,4,3.9Zm-1.3-1.4,1.4,1.4-6.7-1.2Z"/></g><g class="cls-2"><polygon points="164.1 338.9 162.2 340.8 161 339.7 164.1 338.9"/></g><g class="cls-2"><polygon class="cls-1" points="164.1 338.9 162.2 340.8 161 339.7 164.1 338.9"/></g><g class="cls-2"><polygon points="164.1 338.9 164.9 338.1 165.4 338.6 164.1 338.9"/></g><g class="cls-2"><polygon class="cls-1" points="164.1 338.9 164.9 338.1 165.4 338.6 164.1 338.9"/></g><g class="cls-2"><path d="M451.8,396l-4,3.9h5.3Zm-4,0h4l-4,3.9Z"/></g><g class="cls-2"><path class="cls-1" d="M451.8,396l-4,3.9h5.3Zm-4,0h4l-4,3.9Z"/></g><g class="cls-2"><path d="M455.7,392.1l.6,4.6,2-2Zm-2,2,2-2,.6,4.6Z"/></g><g class="cls-2"><path class="cls-1" d="M455.7,392.1l.6,4.6,2-2Zm-2,2,2-2,.6,4.6Z"/></g><g class="cls-2"><path d="M465.5,382.2l-7.2,12.4,9.8-9.8Zm-9.8,9.9,9.8-9.8-7.2,12.4Z"/></g><g class="cls-2"><path class="cls-1" d="M465.5,382.2l-7.2,12.4,9.8-9.8Zm-9.8,9.9,9.8-9.8-7.2,12.4Z"/></g><g class="cls-2"><polygon points="468.4 376.9 470.8 376.9 470.8 378.4 468.4 376.9"/></g><g class="cls-2"><polygon class="cls-1" points="468.4 376.9 470.8 376.9 470.8 378.4 468.4 376.9"/></g><g class="cls-2"><polygon points="468.4 376.9 466.9 376.9 466.9 376 468.4 376.9"/></g><g class="cls-2"><polygon class="cls-1" points="468.4 376.9 466.9 376.9 466.9 376 468.4 376.9"/></g><g class="cls-2"><path d="M449.2,400.2l-.8.3h.8Zm-.8,0h.8l-.8.3Z"/></g><g class="cls-2"><path class="cls-1" d="M449.2,400.2l-.8.3h.8Zm-.8,0h.8l-.8.3Z"/></g><g class="cls-2"><path d="M448.4,407.9l.8,1.2v-1.2Zm0,1.3V408l.8,1.2Z"/></g><g class="cls-2"><path class="cls-1" d="M448.4,407.9l.8,1.2v-1.2Zm0,1.3V408l.8,1.2Z"/></g><g class="cls-2"><polygon points="478.3 440.6 478 440.2 478.3 440.2 478.3 440.6"/></g><g class="cls-2"><polygon class="cls-1" points="478.3 440.6 478 440.2 478.3 440.2 478.3 440.6"/></g><g class="cls-2"><polygon points="478.3 440.6 479.3 442.5 478.3 442.5 478.3 440.6"/></g><g class="cls-2"><polygon class="cls-1" points="478.3 440.6 479.3 442.5 478.3 442.5 478.3 440.6"/></g><g class="cls-2"><path d="M477.8,442.5l.5-2.3h-.5Zm.5,0h-.5l.5-2.3Z"/></g><g class="cls-2"><path class="cls-1" d="M477.8,442.5l.5-2.3h-.5Zm.5,0h-.5l.5-2.3Z"/></g><g class="cls-2"><path d="M99.6,400.6l26.9-32L97,398.1ZM129,371.2,99.6,400.6l26.9-32Z"/></g><g class="cls-2"><path class="cls-1" d="M99.6,400.6l26.9-32L97,398.1ZM129,371.2,99.6,400.6l26.9-32Z"/></g><g class="cls-2"><path d="M86.9,413.3,97,398.1,81.7,413.4h5.2Zm12.7-12.7L86.9,413.3,97,398.1Z"/></g><g class="cls-2"><path class="cls-1" d="M86.9,413.3,97,398.1,81.7,413.4h5.2Zm12.7-12.7L86.9,413.3,97,398.1Z"/></g><g class="cls-2"><path class="cls-3" d="M93.4,419.8a9.24,9.24,0,0,0,0,13.2"/></g><g class="cls-2"><line class="cls-3" x1="93.4" y1="433" x2="100" y2="426.4"/></g><g class="cls-2"><path d="M154.7,345.5l2.3.5-4-4Zm1.4,1.4-1.4-1.4,2.3.5Z"/></g><g class="cls-2"><path class="cls-1" d="M154.7,345.5l2.3.5-4-4Zm1.4,1.4-1.4-1.4,2.3.5Z"/></g><g class="cls-2"><line class="cls-3" x1="86.9" y1="413.3" x2="84.4" y2="410.8"/></g><g class="cls-2"><line class="cls-3" x1="73.4" y1="478.8" x2="69.9" y2="478.8"/></g><g class="cls-2"><polygon points="478.3 377.8 478.3 378.4 478 378.4 478.3 377.8"/></g><g class="cls-2"><polygon class="cls-1" points="478.3 377.8 478.3 378.4 478 378.4 478.3 377.8"/></g><g class="cls-2"><polygon points="478.3 377.8 478.3 376 479.3 376 478.3 377.8"/></g><g class="cls-2"><polygon class="cls-1" points="478.3 377.8 478.3 376 479.3 376 478.3 377.8"/></g><g class="cls-2"><path d="M360.8,611.2l-2.6-3.6v3.6Zm4.7-3.6-4.7,3.6-2.6-3.6Z"/></g><g class="cls-2"><path class="cls-1" d="M360.8,611.2l-2.6-3.6v3.6Zm4.7-3.6-4.7,3.6-2.6-3.6Z"/></g><g class="cls-2"><path d="M348.3,611.2l.5-3.6h-.5Zm.5,0h-.5l.5-3.6Z"/></g><g class="cls-2"><path class="cls-1" d="M348.3,611.2l.5-3.6h-.5Zm.5,0h-.5l.5-3.6Z"/></g><g class="cls-2"><path d="M338.5,611.2l.5-3.6h-.5Zm.5,0h-.5l.5-3.6Z"/></g><g class="cls-2"><path class="cls-1" d="M338.5,611.2l.5-3.6h-.5Zm.5,0h-.5l.5-3.6Z"/></g><g class="cls-2"><path d="M329.1,607.6l-4.1,3.6h4.1Zm-4.2,0H329l-4.1,3.6Z"/></g><g class="cls-2"><path class="cls-1" d="M329.1,607.6l-4.1,3.6h4.1Zm-4.2,0H329l-4.1,3.6Z"/></g><g class="cls-2"><path d="M107.5,452.8l.8-.3h-.8Zm.7,0h-.8l.8-.3Z"/></g><g class="cls-2"><path class="cls-1" d="M107.5,452.8l.8-.3h-.8Zm.7,0h-.8l.8-.3Z"/></g><g class="cls-2"><path d="M108.2,445.7l-.8-1.2v1.2Zm0-1.2v1.2l-.8-1.2Z"/></g><g class="cls-2"><path class="cls-1" d="M108.2,445.7l-.8-1.2v1.2Zm0-1.2v1.2l-.8-1.2Z"/></g><g class="cls-2"><path d="M73.4,653.6,69.8,482.3V653.6Zm0-171.3V653.6L69.8,482.3Z"/></g><g class="cls-2"><path class="cls-1" d="M73.4,653.6,69.8,482.3V653.6Zm0-171.3V653.6L69.8,482.3Z"/></g><g class="cls-2"><path d="M286.1,691.7l-174.6,3.6H286.1Zm-174.6,0H286.1l-174.6,3.6Z"/></g><g class="cls-2"><path class="cls-1" d="M286.1,691.7l-174.6,3.6H286.1Zm-174.6,0H286.1l-174.6,3.6Z"/></g><g class="cls-2"><path d="M289.2,691.7l-3.1,3.6h3.1Zm-3.1,0h3.1l-3.1,3.6Z"/></g><g class="cls-2"><path class="cls-1" d="M289.2,691.7l-3.1,3.6h3.1Zm-3.1,0h3.1l-3.1,3.6Z"/></g><g class="cls-2"><path d="M319.9,642.4l4.6,14.9V642.4Zm0,14.9V642.4l4.6,14.9Z"/></g><g class="cls-2"><path class="cls-1" d="M319.9,642.4l4.6,14.9V642.4Zm0,14.9V642.4l4.6,14.9Z"/></g><g class="cls-2"><path d="M73.4,655.6l-3.6-2v2Zm0-2v2l-3.6-2Z"/></g><g class="cls-2"><path class="cls-1" d="M73.4,655.6l-3.6-2v2Zm0-2v2l-3.6-2Z"/></g><g class="cls-2"><path d="M516.6,190.5l.5,1.3,3-3Zm-.4.4.4-.4.5,1.3Z"/></g><g class="cls-2"><path class="cls-1" d="M516.6,190.5l.5,1.3,3-3Zm-.4.4.4-.4.5,1.3Z"/></g><g class="cls-2"><path d="M249,94.1l.2,5.3,2.5-2.6Zm-5.2,0H249l.2,5.3Z"/></g><g class="cls-2"><path class="cls-1" d="M249,94.1l.2,5.3,2.5-2.6Zm-5.2,0H249l.2,5.3Z"/></g><g class="cls-2"><path d="M262.4,112.6l7.2,2L265,110Zm4.6,4.6-4.6-4.6,7.2,2Z"/></g><g class="cls-2"><path class="cls-1" d="M262.4,112.6l7.2,2L265,110Zm4.6,4.6-4.6-4.6,7.2,2Z"/></g><g class="cls-2"><path d="M148.3,188.8l52.4-57.5-57.5,57.5Zm54.9-54.9-54.9,54.9,52.4-57.5Z"/></g><g class="cls-2"><path class="cls-1" d="M148.3,188.8l52.4-57.5-57.5,57.5Zm54.9-54.9-54.9,54.9,52.4-57.5Z"/></g><g class="cls-2"><polyline class="cls-3" points="337.6 459.3 337.6 481.1 313.1 481.1 291.3 459.3 337.6 459.3 291.3 459.3"/></g><g class="cls-2"><line class="cls-3" x1="293.9" y1="461.9" x2="337.6" y2="461.9"/></g><g class="cls-2"><line class="cls-3" x1="296.5" y1="464.5" x2="337.6" y2="464.5"/></g><g class="cls-2"><line class="cls-3" x1="299.1" y1="467.1" x2="337.6" y2="467.1"/></g><g class="cls-2"><line class="cls-3" x1="301.7" y1="469.7" x2="337.6" y2="469.7"/></g><g class="cls-2"><line class="cls-3" x1="304.3" y1="472.3" x2="337.6" y2="472.3"/></g><g class="cls-2"><line class="cls-3" x1="306.9" y1="474.9" x2="337.6" y2="474.9"/></g><g class="cls-2"><line class="cls-3" x1="309.5" y1="477.5" x2="337.6" y2="477.5"/></g><g class="cls-2"><line class="cls-3" x1="312.1" y1="480.1" x2="337.6" y2="480.1"/></g><g class="cls-2"><polyline class="cls-3" points="303 496 270.2 463.2 282.7 450.7 315.5 483.4 303 496 315.5 483.4"/></g><g class="cls-2"><line class="cls-3" x1="313.6" y1="481.6" x2="301.1" y2="494.1"/></g><g class="cls-2"><line class="cls-3" x1="311.8" y1="479.8" x2="299.3" y2="492.3"/></g><g class="cls-2"><line class="cls-3" x1="309.9" y1="477.9" x2="297.5" y2="490.5"/></g><g class="cls-2"><line class="cls-3" x1="308.1" y1="476.1" x2="295.6" y2="488.6"/></g><g class="cls-2"><line class="cls-3" x1="306.3" y1="474.3" x2="293.8" y2="486.8"/></g><g class="cls-2"><line class="cls-3" x1="304.4" y1="472.4" x2="292" y2="484.9"/></g><g class="cls-2"><line class="cls-3" x1="302.6" y1="470.6" x2="290.1" y2="483.1"/></g><g class="cls-2"><line class="cls-3" x1="300.8" y1="468.8" x2="288.3" y2="481.2"/></g><g class="cls-2"><line class="cls-3" x1="298.9" y1="466.9" x2="286.4" y2="479.4"/></g><g class="cls-2"><line class="cls-3" x1="297.1" y1="465.1" x2="284.6" y2="477.6"/></g><g class="cls-2"><line class="cls-3" x1="295.3" y1="463.3" x2="282.8" y2="475.7"/></g><g class="cls-2"><line class="cls-3" x1="293.5" y1="461.4" x2="280.9" y2="473.9"/></g><g class="cls-2"><line class="cls-3" x1="291.6" y1="459.6" x2="279.1" y2="472.1"/></g><g class="cls-2"><line class="cls-3" x1="289.8" y1="457.7" x2="277.2" y2="470.2"/></g><g class="cls-2"><line class="cls-3" x1="287.9" y1="455.9" x2="275.4" y2="468.4"/></g><g class="cls-2"><line class="cls-3" x1="286.1" y1="454.1" x2="273.6" y2="466.6"/></g><g class="cls-2"><line class="cls-3" x1="284.2" y1="452.2" x2="271.8" y2="464.7"/></g><g class="cls-2"><path d="M203.2,133.9l37.7-42.8-40.2,40.3Zm40.3-40.2-40.3,40.2,37.7-42.8Z"/></g><g class="cls-2"><path class="cls-1" d="M203.2,133.9l37.7-42.8-40.2,40.3Zm40.3-40.2-40.3,40.2,37.7-42.8Z"/></g><g class="cls-2"><path d="M204.1,244.6l-60.9-55.8,58.4,58.4Zm-55.8-55.8,55.8,55.8-60.9-55.8Z"/></g><g class="cls-2"><path class="cls-1" d="M204.1,244.6l-60.9-55.8,58.4,58.4Zm-55.8-55.8,55.8,55.8-60.9-55.8Z"/></g><g class="cls-2"><path d="M205.5,246.1l-4,1.1,1.5,1.5Zm-1.4-1.5,1.4,1.5-4,1.1Z"/></g><g class="cls-2"><path class="cls-1" d="M205.5,246.1l-4,1.1,1.5,1.5Zm-1.4-1.5,1.4,1.5-4,1.1Z"/></g><g class="cls-2"><path d="M355.9,29.8l102.1,97L355.9,24.6Zm99.6,99.6L355.9,29.8l102.1,97Z"/></g><g class="cls-2"><path class="cls-1" d="M355.9,29.8l102.1,97L355.9,24.6Zm99.6,99.6L355.9,29.8l102.1,97Z"/></g><g class="cls-2"><path d="M229.9,270.4l-13.3-8.2,8.2,8.2Zm-10.7-10.7,10.7,10.7-13.3-8.2Z"/></g><g class="cls-2"><path class="cls-1" d="M229.9,270.4l-13.3-8.2,8.2,8.2Zm-10.7-10.7,10.7,10.7-13.3-8.2Z"/></g><g class="cls-2"><line class="cls-3" x1="212.8" y1="124.3" x2="235.5" y2="147.1"/></g><g class="cls-2"><polyline class="cls-3" points="214.7 126.2 221.3 119.6 226.8 125.1 220.2 131.7 214.7 126.2 220.2 131.7"/></g><g class="cls-2"><line class="cls-3" x1="222" y1="129.9" x2="216.5" y2="124.4"/></g><g class="cls-2"><line class="cls-3" x1="223.8" y1="128.1" x2="218.3" y2="122.6"/></g><g class="cls-2"><line class="cls-3" x1="225.7" y1="126.2" x2="220.2" y2="120.7"/></g><g class="cls-2"><polyline class="cls-3" points="273.5 266.7 272.8 267.4 245.9 240.5 246.6 239.8"/></g><g class="cls-2"><polyline class="cls-3" points="272.8 267.4 254.8 249.4 244.6 259.6 262.6 277.6 272.8 267.4"/></g><g class="cls-2"><line class="cls-3" x1="260.8" y1="275.8" x2="271" y2="265.6"/></g><g class="cls-2"><line class="cls-3" x1="258.9" y1="274" x2="269.1" y2="263.8"/></g><g class="cls-2"><line class="cls-3" x1="257.1" y1="272.1" x2="267.3" y2="261.9"/></g><g class="cls-2"><line class="cls-3" x1="255.3" y1="270.3" x2="265.5" y2="260.1"/></g><g class="cls-2"><line class="cls-3" x1="253.4" y1="268.5" x2="263.7" y2="258.3"/></g><g class="cls-2"><line class="cls-3" x1="251.6" y1="266.6" x2="261.8" y2="256.4"/></g><g class="cls-2"><line class="cls-3" x1="249.8" y1="264.8" x2="260" y2="254.6"/></g><g class="cls-2"><line class="cls-3" x1="247.9" y1="262.9" x2="258.2" y2="252.7"/></g><g class="cls-2"><line class="cls-3" x1="246.1" y1="261.1" x2="256.3" y2="250.9"/></g><g class="cls-2"><polyline class="cls-4" points="496.2 315.7 496.2 345.7 498.3 345.7 498.3 313.6"/></g><g class="cls-2"><polyline class="cls-4" points="480.9 313.6 479.6 313.6 479.6 365.5 481.1 365.5 482.7 365.5 482.7 315.7 481.8 315.7"/></g><g class="cls-2"><polyline class="cls-4" points="479.6 377.1 479.6 376 479.3 376 479.3 377.1 479.3 378.1 479.6 378.1 479.6 377.1"/></g><g class="cls-2"><polyline class="cls-4" points="479.6 441.4 479.6 440.4 479.3 440.4 479.3 441.4 479.3 442.5 479.6 442.5 479.6 441.4"/></g><g class="cls-2"><polyline class="cls-4" points="479.6 607.1 479.6 606.1 479.3 606.1 479.3 607.1 479.3 608.2 479.6 608.2 479.6 607.1"/></g><g class="cls-2"><polyline class="cls-4" points="447.9 638.8 448.9 638.8 448.9 638.5 447.9 638.5 446.9 638.5 446.9 638.8 447.9 638.8"/></g><g class="cls-2"><polyline class="cls-4" points="289.2 691.7 290.3 691.7 290.3 691.4 289.2 691.4 288.2 691.4 288.2 691.7 289.2 691.7"/></g><g class="cls-2"><polyline class="cls-4" points="109.6 691.7 110.6 691.7 110.6 691.4 109.6 691.4 108.5 691.4 108.5 691.7 109.6 691.7"/></g><g class="cls-2"><polyline class="cls-4" points="73.4 655.6 73.4 656.6 73.7 656.6 73.7 655.6 73.7 654.5 73.4 654.5 73.4 655.6"/></g><g class="cls-2"><polyline class="cls-4" points="73.4 480.3 73.4 481.4 73.7 481.4 73.7 480.3 73.7 479.3 73.4 479.3 73.4 480.3"/></g><g class="cls-2"><polyline class="cls-4" points="516.5 307.5 498.5 307.5 498.5 314.7 497.2 314.7"/></g><g class="cls-2"><line class="cls-4" x1="436.1" y1="268.7" x2="435.6" y2="268.3"/></g><g class="cls-2"><line class="cls-4" x1="455.7" y1="293.7" x2="455.7" y2="291"/></g><g class="cls-2"><line class="cls-4" x1="457.5" y1="290.2" x2="457.5" y2="293.7"/></g><g class="cls-2"><line class="cls-4" x1="456.7" y1="295.5" x2="445.3" y2="295.5"/></g><g class="cls-2"><line class="cls-4" x1="444.7" y1="293.7" x2="455.7" y2="293.7"/></g><g class="cls-2"><line class="cls-4" x1="457.5" y1="293.7" x2="475.1" y2="293.7"/></g><g class="cls-2"><line class="cls-4" x1="475.1" y1="295.5" x2="456.7" y2="295.5"/></g><g class="cls-2"><line class="cls-4" x1="476.9" y1="292" x2="476.9" y2="293.7"/></g><g class="cls-2"><line class="cls-4" x1="475.1" y1="293.7" x2="475.1" y2="290.2"/></g><g class="cls-2"><line class="cls-4" x1="476.9" y1="344.5" x2="476.9" y2="349.8"/></g><g class="cls-2"><line class="cls-4" x1="475.1" y1="351.6" x2="475.1" y2="345.4"/></g><g class="cls-2"><line class="cls-4" x1="496.2" y1="315.7" x2="481.8" y2="315.7"/></g><g class="cls-2"><line class="cls-4" x1="482.7" y1="313.6" x2="498.3" y2="313.6"/></g><g class="cls-2"><line class="cls-4" x1="476.9" y1="293.7" x2="480.9" y2="293.7"/></g><g class="cls-2"><polyline class="cls-4" points="480.9 313.6 480.9 295.5 476.9 295.5"/></g><g class="cls-2"><line class="cls-4" x1="482.7" y1="294.6" x2="482.7" y2="313.6"/></g><g class="cls-2"><line class="cls-4" x1="480.9" y1="293.7" x2="480.9" y2="292"/></g><g class="cls-2"><polyline class="cls-4" points="475.1 290.2 482.7 290.2 482.7 294.6"/></g><g class="cls-2"><line class="cls-4" x1="480.9" y1="292" x2="476.9" y2="292"/></g><g class="cls-2"><line class="cls-4" x1="443.2" y1="314.2" x2="443.2" y2="294.8"/></g><g class="cls-2"><line class="cls-4" x1="445.3" y1="295.5" x2="445.3" y2="315.1"/></g><g class="cls-2"><line class="cls-4" x1="362" y1="378.7" x2="367.4" y2="373.3"/></g><g class="cls-2"><polyline class="cls-4" points="370.8 375.4 367.9 375.4 363.3 380"/></g><g class="cls-2"><line class="cls-4" x1="367.4" y1="373.3" x2="371.8" y2="373.3"/></g><g class="cls-2"><line class="cls-4" x1="370.8" y1="381.1" x2="361.7" y2="381.1"/></g><g class="cls-2"><line class="cls-4" x1="363.5" y1="379.3" x2="370.8" y2="379.3"/></g><g class="cls-2"><line class="cls-4" x1="361.7" y1="381.1" x2="361.7" y2="379"/></g><g class="cls-2"><line class="cls-4" x1="363.5" y1="379.8" x2="363.5" y2="379.3"/></g><g class="cls-2"><line class="cls-4" x1="385.2" y1="375.4" x2="372.9" y2="375.4"/></g><g class="cls-2"><line class="cls-4" x1="371.8" y1="373.3" x2="384.3" y2="373.3"/></g><g class="cls-2"><line class="cls-4" x1="372.9" y1="375.4" x2="372.9" y2="380.2"/></g><g class="cls-2"><line class="cls-4" x1="370.8" y1="379.3" x2="370.8" y2="375.4"/></g><g class="cls-2"><polyline class="cls-4" points="370.8 588.8 370.8 595.5 372.9 595.5 372.9 587.9"/></g><g class="cls-2"><polyline class="cls-4" points="372.9 608.6 372.9 604.9 370.8 604.9 370.8 607.6 366.6 607.6"/></g><g class="cls-2"><line class="cls-4" x1="370.8" y1="609.7" x2="367.5" y2="609.7"/></g><g class="cls-2"><line class="cls-4" x1="372.9" y1="607.9" x2="378.2" y2="607.9"/></g><g class="cls-2"><polyline class="cls-4" points="378.2 607.9 378.2 615.7 376.3 615.7 376.3 609.7 370.8 609.7"/></g><g class="cls-2"><polyline class="cls-4" points="445.7 635.9 378.2 635.9 378.2 628.1 376.3 628.1 376.3 635.9"/></g><g class="cls-2"><line class="cls-4" x1="443.9" y1="637.8" x2="377.3" y2="637.8"/></g><g class="cls-2"><polyline class="cls-4" points="443.9 637.8 443.9 638.8 444.8 638.8 445.7 638.8 445.7 635.9"/></g><g class="cls-2"><line class="cls-4" x1="377.3" y1="637.8" x2="365.7" y2="637.8"/></g><g class="cls-2"><line class="cls-4" x1="367.5" y1="635.9" x2="376.3" y2="635.9"/></g><g class="cls-2"><polyline class="cls-4" points="366.6 607.6 365.5 607.6 365.5 608.6 365.5 609.7 365.7 609.7 365.7 637.8"/></g><g class="cls-2"><line class="cls-4" x1="367.5" y1="609.7" x2="367.5" y2="635.9"/></g><g class="cls-2"><line class="cls-4" x1="372.9" y1="608.6" x2="372.9" y2="607.9"/></g><g class="cls-2"><path class="cls-4" d="M377.3,621.9a6.27,6.27,0,0,0,6.3-6.3"/></g><g class="cls-2"><line class="cls-4" x1="383.5" y1="615.7" x2="377.3" y2="615.7"/></g><g class="cls-2"><path class="cls-4" d="M383.6,628.1a6.27,6.27,0,0,0-6.3-6.3"/></g><g class="cls-2"><line class="cls-4" x1="383.5" y1="628.1" x2="377.3" y2="628.1"/></g><g class="cls-2"><polyline class="cls-4" points="435.4 270.6 436.2 271.4 437.5 270.1 435.6 268.3"/></g><g class="cls-2"><polyline class="cls-4" points="442.5 291.6 442.1 291.1 440.9 292.5 441.9 293.4"/></g><g class="cls-2"><polyline class="cls-4" points="426.2 277.8 427.6 279.2 428.9 277.9 428.5 277.5 435.4 270.6"/></g><g class="cls-2"><line class="cls-4" x1="426.5" y1="275.5" x2="433.4" y2="268.6"/></g><g class="cls-2"><line class="cls-4" x1="426.2" y1="277.8" x2="426.8" y2="278.4"/></g><g class="cls-2"><line class="cls-4" x1="426.5" y1="275.5" x2="426.5" y2="275.5"/></g><g class="cls-2"><line class="cls-4" x1="233.1" y1="268.6" x2="243.3" y2="258.4"/></g><g class="cls-2"><line class="cls-4" x1="242.9" y1="261.3" x2="233.9" y2="270.3"/></g><g class="cls-2"><line class="cls-4" x1="399.3" y1="375.4" x2="385.2" y2="375.4"/></g><g class="cls-2"><polyline class="cls-4" points="384.3 373.3 384.3 371.6 386.1 371.6 386.1 373.3 398.1 373.3"/></g><g class="cls-2"><polyline class="cls-4" points="384.3 356.4 384.3 360.7 386.1 360.7 386.1 357.1"/></g><g class="cls-2"><polyline class="cls-4" points="410.1 361.3 408.6 362.8 410.3 364.4 411.8 363"/></g><g class="cls-2"><polyline class="cls-4" points="399.3 375.4 403.6 371 402 369.4 398.1 373.3"/></g><g class="cls-2"><polyline class="cls-4" points="450.7 392.4 453.1 394.8 453.7 394.1 454.3 393.4 451.4 390.5"/></g><g class="cls-2"><polyline class="cls-4" points="445 382.6 455.1 392.7 455.7 392.1 456.4 391.5 446.9 382"/></g><g class="cls-2"><line class="cls-4" x1="429.6" y1="368.7" x2="451.4" y2="390.5"/></g><g class="cls-2"><line class="cls-4" x1="449.4" y1="391.1" x2="428.4" y2="370.1"/></g><g class="cls-2"><polyline class="cls-4" points="449.4 391.1 446.9 393.7 446.9 396 447.8 396 448.7 396 448.7 394.4 450.7 392.4"/></g><g class="cls-2"><polyline class="cls-4" points="456.8 372 462.6 377.8 466.9 377.8 466.9 376.9 466.9 376 463.4 376 456.8 369.4"/></g><g class="cls-2"><line class="cls-4" x1="431.7" y1="366.7" x2="445.6" y2="380.6"/></g><g class="cls-2"><line class="cls-4" x1="445" y1="382.6" x2="430.4" y2="368"/></g><g class="cls-2"><line class="cls-4" x1="445.6" y1="380.6" x2="456.8" y2="369.4"/></g><g class="cls-2"><line class="cls-4" x1="456.8" y1="372" x2="446.9" y2="382"/></g><g class="cls-2"><line class="cls-4" x1="420" y1="410" x2="420" y2="407"/></g><g class="cls-2"><line class="cls-4" x1="421.8" y1="405.1" x2="421.8" y2="408.2"/></g><g class="cls-2"><line class="cls-4" x1="372.9" y1="380.2" x2="372.9" y2="405.1"/></g><g class="cls-2"><line class="cls-4" x1="370.8" y1="406" x2="370.8" y2="381.1"/></g><g class="cls-2"><line class="cls-4" x1="410.3" y1="407" x2="372.9" y2="407"/></g><g class="cls-2"><line class="cls-4" x1="372.9" y1="405.1" x2="409.4" y2="405.1"/></g><g class="cls-2"><line class="cls-4" x1="476.9" y1="295.5" x2="476.9" y2="344.5"/></g><g class="cls-2"><line class="cls-4" x1="475.1" y1="343.6" x2="475.1" y2="295.5"/></g><g class="cls-2"><line class="cls-4" x1="475.1" y1="345.4" x2="461.1" y2="345.4"/></g><g class="cls-2"><polyline class="cls-4" points="461.1 345.4 461.1 351.9 459.2 351.9 459.2 343.6 475.1 343.6"/></g><g class="cls-2"><line class="cls-4" x1="455.7" y1="291" x2="450.7" y2="285.9"/></g><g class="cls-2"><line class="cls-4" x1="451.4" y1="284" x2="457.5" y2="290.2"/></g><g class="cls-2"><line class="cls-4" x1="443.2" y1="294.8" x2="441.9" y2="293.4"/></g><g class="cls-2"><polyline class="cls-4" points="450.7 285.9 443.9 292.8 444.7 293.7"/></g><g class="cls-2"><polyline class="cls-4" points="442.5 291.6 449.4 284.7 448.7 284 450 282.6 451.4 284"/></g><g class="cls-2"><line class="cls-4" x1="414.6" y1="326.2" x2="426.5" y2="314.2"/></g><g class="cls-2"><line class="cls-4" x1="427.3" y1="316" x2="417.3" y2="325.9"/></g><g class="cls-2"><line class="cls-4" x1="443.2" y1="328.1" x2="443.2" y2="316"/></g><g class="cls-2"><line class="cls-4" x1="445.3" y1="315.1" x2="445.3" y2="329.3"/></g><g class="cls-2"><polyline class="cls-4" points="427.3 316 430.7 316 430.7 314.2 426.5 314.2"/></g><g class="cls-2"><polyline class="cls-4" points="443.2 314.2 441.6 314.2 441.6 316 443.2 316"/></g><g class="cls-2"><polyline class="cls-4" points="443.2 328.1 439.5 331.9 441.2 333.5 445.3 329.3"/></g><g class="cls-2"><polyline class="cls-4" points="433 341.6 434.5 340.2 432.9 338.5 431.4 340"/></g><g class="cls-2"><line class="cls-4" x1="441.9" y1="353.5" x2="430.7" y2="342.3"/></g><g class="cls-2"><line class="cls-4" x1="433" y1="341.6" x2="444.9" y2="353.5"/></g><g class="cls-2"><line class="cls-4" x1="425.3" y1="336.8" x2="414.6" y2="326.2"/></g><g class="cls-2"><line class="cls-4" x1="417.3" y1="325.9" x2="427.5" y2="336.1"/></g><g class="cls-2"><line class="cls-4" x1="423.6" y1="374.8" x2="411.8" y2="363"/></g><g class="cls-2"><line class="cls-4" x1="412.4" y1="360.7" x2="423.6" y2="371.9"/></g><g class="cls-2"><line class="cls-4" x1="384.3" y1="356.4" x2="396.2" y2="344.5"/></g><g class="cls-2"><polyline class="cls-4" points="406.1 357.4 396 347.3 386.1 357.1"/></g><g class="cls-2"><line class="cls-4" x1="396.2" y1="344.5" x2="406.8" y2="355.2"/></g><g class="cls-2"><line class="cls-4" x1="423.6" y1="371.9" x2="427.5" y2="367.9"/></g><g class="cls-2"><line class="cls-4" x1="428.4" y1="370.1" x2="423.6" y2="374.8"/></g><g class="cls-2"><line class="cls-4" x1="427.5" y1="367.9" x2="429.6" y2="365.9"/></g><g class="cls-2"><line class="cls-4" x1="430.4" y1="368" x2="429.6" y2="368.7"/></g><g class="cls-2"><line class="cls-4" x1="429.6" y1="365.9" x2="441.9" y2="353.5"/></g><g class="cls-2"><line class="cls-4" x1="444.9" y1="353.5" x2="431.7" y2="366.7"/></g><g class="cls-2"><line class="cls-4" x1="430.7" y1="342.3" x2="426.7" y2="338.3"/></g><g class="cls-2"><line class="cls-4" x1="427.5" y1="336.1" x2="431.4" y2="340"/></g><g class="cls-2"><line class="cls-4" x1="410.1" y1="361.3" x2="406.1" y2="357.4"/></g><g class="cls-2"><line class="cls-4" x1="408.3" y1="356.7" x2="412.4" y2="360.7"/></g><g class="cls-2"><polyline class="cls-4" points="425.3 336.8 423.2 338.8 424.7 340.3 426.7 338.3"/></g><g class="cls-2"><polyline class="cls-4" points="408.3 356.7 416.9 348 415.5 346.6 406.8 355.2"/></g><g class="cls-2"><line class="cls-4" x1="414.7" y1="407" x2="410.3" y2="407"/></g><g class="cls-2"><polyline class="cls-4" points="411.2 391.1 411.2 405.1 413.8 405.1"/></g><g class="cls-2"><line class="cls-4" x1="409.4" y1="405.1" x2="409.4" y2="390.7"/></g><g class="cls-2"><line class="cls-4" x1="420" y1="407" x2="414.7" y2="407"/></g><g class="cls-2"><line class="cls-4" x1="415.6" y1="405.1" x2="421.8" y2="405.1"/></g><g class="cls-2"><polyline class="cls-4" points="411.2 390.3 411.2 389.1 409.4 389.1 409.4 390.7"/></g><g class="cls-2"><line class="cls-4" x1="413.8" y1="405.1" x2="413.8" y2="391.1"/></g><g class="cls-2"><line class="cls-4" x1="415.6" y1="391.1" x2="415.6" y2="405.1"/></g><g class="cls-2"><line class="cls-4" x1="411.2" y1="390.3" x2="414.7" y2="390.3"/></g><g class="cls-2"><line class="cls-4" x1="413.8" y1="391.1" x2="411.2" y2="391.1"/></g><g class="cls-2"><line class="cls-4" x1="414.7" y1="390.3" x2="420.1" y2="390.3"/></g><g class="cls-2"><polyline class="cls-4" points="420.1 390.3 420.1 389.1 422 389.1 422 391.1 415.6 391.1"/></g><g class="cls-2"><polyline class="cls-4" points="445.7 410 448.4 410 448.4 409.2 448.4 408.2 444.8 408.2 421.8 408.2"/></g><g class="cls-2"><line class="cls-4" x1="443.9" y1="410" x2="420" y2="410"/></g><g class="cls-2"><line class="cls-4" x1="445.7" y1="410" x2="445.7" y2="412.1"/></g><g class="cls-2"><line class="cls-4" x1="443.9" y1="410.3" x2="443.9" y2="410"/></g><g class="cls-2"><line class="cls-4" x1="445.7" y1="412.1" x2="412.7" y2="412.1"/></g><g class="cls-2"><line class="cls-4" x1="414.6" y1="410.3" x2="443.9" y2="410.3"/></g><g class="cls-2"><line class="cls-4" x1="412.7" y1="412.1" x2="412.7" y2="411.1"/></g><g class="cls-2"><line class="cls-4" x1="414.6" y1="409.3" x2="414.6" y2="410.3"/></g><g class="cls-2"><line class="cls-4" x1="412.7" y1="411.1" x2="405" y2="411.1"/></g><g class="cls-2"><line class="cls-4" x1="403.2" y1="409.3" x2="414.6" y2="409.3"/></g><g class="cls-2"><line class="cls-4" x1="405" y1="411.1" x2="405" y2="412.1"/></g><g class="cls-2"><line class="cls-4" x1="403.2" y1="410.3" x2="403.2" y2="409.3"/></g><g class="cls-2"><line class="cls-4" x1="372.9" y1="407" x2="372.9" y2="410.3"/></g><g class="cls-2"><line class="cls-4" x1="370.8" y1="410.3" x2="370.8" y2="406"/></g><g class="cls-2"><line class="cls-4" x1="405" y1="412.1" x2="372.9" y2="412.1"/></g><g class="cls-2"><line class="cls-4" x1="372.9" y1="410.3" x2="403.2" y2="410.3"/></g><g class="cls-2"><line class="cls-4" x1="370.8" y1="412.1" x2="363.4" y2="412.1"/></g><g class="cls-2"><line class="cls-4" x1="361.6" y1="410.3" x2="370.8" y2="410.3"/></g><g class="cls-2"><line class="cls-4" x1="363.4" y1="435.1" x2="363.4" y2="437.7"/></g><g class="cls-2"><line class="cls-4" x1="361.6" y1="439.5" x2="361.6" y2="433.3"/></g><g class="cls-2"><line class="cls-4" x1="372.9" y1="434.2" x2="372.9" y2="438.6"/></g><g class="cls-2"><polyline class="cls-4" points="363.4 437.7 370.8 437.7 370.8 435.1"/></g><g class="cls-2"><line class="cls-4" x1="370.8" y1="439.5" x2="361.6" y2="439.5"/></g><g class="cls-2"><polyline class="cls-4" points="370.8 416.7 370.8 418.3 372.9 418.3 372.9 415.8"/></g><g class="cls-2"><polyline class="cls-4" points="372.9 434.2 372.9 427.6 370.8 427.6 370.8 433.3 361.6 433.3"/></g><g class="cls-2"><line class="cls-4" x1="370.8" y1="435.1" x2="363.4" y2="435.1"/></g><g class="cls-2"><line class="cls-4" x1="363.4" y1="412.1" x2="363.4" y2="414.8"/></g><g class="cls-2"><line class="cls-4" x1="361.6" y1="416.7" x2="361.6" y2="410.3"/></g><g class="cls-2"><line class="cls-4" x1="372.9" y1="412.1" x2="372.9" y2="415.8"/></g><g class="cls-2"><polyline class="cls-4" points="363.4 414.8 370.8 414.8 370.8 412.1"/></g><g class="cls-2"><line class="cls-4" x1="370.8" y1="416.7" x2="361.6" y2="416.7"/></g><g class="cls-2"><line class="cls-4" x1="361.8" y1="558.5" x2="370.8" y2="558.5"/></g><g class="cls-2"><polyline class="cls-4" points="370.8 560.3 363.7 560.3 363.7 563.1"/></g><g class="cls-2"><line class="cls-4" x1="361.8" y1="564.9" x2="361.8" y2="558.5"/></g><g class="cls-2"><line class="cls-4" x1="363.7" y1="563.1" x2="366.6" y2="563.1"/></g><g class="cls-2"><line class="cls-4" x1="365.7" y1="564.9" x2="361.8" y2="564.9"/></g><g class="cls-2"><line class="cls-4" x1="367.5" y1="564.9" x2="367.5" y2="582.6"/></g><g class="cls-2"><line class="cls-4" x1="365.7" y1="582.6" x2="365.7" y2="564.9"/></g><g class="cls-2"><line class="cls-4" x1="372.9" y1="559.5" x2="372.9" y2="564"/></g><g class="cls-2"><polyline class="cls-4" points="366.6 563.1 370.8 563.1 370.8 560.3"/></g><g class="cls-2"><line class="cls-4" x1="370.8" y1="564.9" x2="367.5" y2="564.9"/></g><g class="cls-2"><line class="cls-4" x1="372.9" y1="564" x2="372.9" y2="583.4"/></g><g class="cls-2"><polyline class="cls-4" points="367.5 582.6 370.8 582.6 370.8 564.9"/></g><g class="cls-2"><polyline class="cls-4" points="370.8 584.4 366.6 584.4 363.4 584.4"/></g><g class="cls-2"><line class="cls-4" x1="361.6" y1="582.6" x2="365.7" y2="582.6"/></g><g class="cls-2"><line class="cls-4" x1="363.4" y1="584.4" x2="363.4" y2="587"/></g><g class="cls-2"><line class="cls-4" x1="361.6" y1="588.8" x2="361.6" y2="582.6"/></g><g class="cls-2"><line class="cls-4" x1="372.9" y1="583.4" x2="372.9" y2="587.9"/></g><g class="cls-2"><polyline class="cls-4" points="363.4 587 370.8 587 370.8 584.4"/></g><g class="cls-2"><line class="cls-4" x1="370.8" y1="588.8" x2="361.6" y2="588.8"/></g><g class="cls-2"><line class="cls-4" x1="477.6" y1="606.1" x2="477.8" y2="606.1"/></g><g class="cls-2"><polyline class="cls-4" points="476.7 448.4 476.7 606.1 478.5 606.1 478.5 449.4"/></g><g class="cls-2"><polyline class="cls-4" points="478.5 449.4 478.8 449.4 478.8 442.5 478.3 442.5 477.8 442.5 477.8 448.4 476.7 448.4"/></g><g class="cls-2"><path class="cls-4" d="M371.9,595.5a9.28,9.28,0,0,0-9.3,9.3"/></g><g class="cls-2"><line class="cls-4" x1="362.4" y1="604.9" x2="371.8" y2="604.9"/></g><g class="cls-2"><path class="cls-4" d="M362.5,418.2a9.28,9.28,0,0,0,9.3,9.3"/></g><g class="cls-2"><line class="cls-4" x1="362.4" y1="418.3" x2="371.8" y2="418.3"/></g><g class="cls-2"><polyline class="cls-4" points="343.4 358.5 342.3 357.4 340.6 359 343.4 361.8"/></g><g class="cls-2"><polyline class="cls-4" points="331.3 349.8 321.2 360 322.8 361.6 333 351.4 334 352.4 335.6 350.7 333.8 348.9"/></g><g class="cls-2"><polyline class="cls-4" points="323.3 377.3 315.2 369.2 316.2 368.2 314.6 366.6 311.9 369.2 321.1 378.3"/></g><g class="cls-2"><line class="cls-4" x1="331.3" y1="349.8" x2="242.9" y2="261.3"/></g><g class="cls-2"><line class="cls-4" x1="243.3" y1="258.4" x2="333.8" y2="348.9"/></g><g class="cls-2"><path class="cls-4" d="M322,374a9.24,9.24,0,0,0,0-13.2"/></g><g class="cls-2"><line class="cls-4" x1="322" y1="374" x2="315.4" y2="367.4"/></g><g class="cls-2"><line class="cls-4" x1="322.5" y1="379.8" x2="322.4" y2="379.6"/></g><g class="cls-2"><line class="cls-4" x1="323.3" y1="377.3" x2="325.6" y2="379.6"/></g><g class="cls-2"><line class="cls-4" x1="283.4" y1="421.8" x2="278.9" y2="426.3"/></g><g class="cls-2"><line class="cls-4" x1="278.3" y1="423.9" x2="281.9" y2="420.4"/></g><g class="cls-2"><line class="cls-4" x1="322.4" y1="379.6" x2="278" y2="423.9"/></g><g class="cls-2"><line class="cls-4" x1="275.5" y1="423.9" x2="321.1" y2="378.3"/></g><g class="cls-2"><line class="cls-4" x1="278.9" y1="426.3" x2="275.6" y2="426.3"/></g><g class="cls-2"><line class="cls-4" x1="278" y1="423.9" x2="278.3" y2="423.9"/></g><g class="cls-2"><line class="cls-4" x1="275.6" y1="426.3" x2="223.9" y2="426.3"/></g><g class="cls-2"><line class="cls-4" x1="226.2" y1="423.9" x2="275.5" y2="423.9"/></g><g class="cls-2"><line class="cls-4" x1="223.9" y1="426.3" x2="223.9" y2="414"/></g><g class="cls-2"><line class="cls-4" x1="226.2" y1="411.6" x2="226.2" y2="423.9"/></g><g class="cls-2"><line class="cls-4" x1="200.1" y1="414" x2="171.8" y2="414"/></g><g class="cls-2"><line class="cls-4" x1="171.1" y1="411.6" x2="201" y2="411.6"/></g><g class="cls-2"><line class="cls-4" x1="171.8" y1="414" x2="171.8" y2="426.5"/></g><g class="cls-2"><line class="cls-4" x1="169.5" y1="424.2" x2="169.5" y2="413.3"/></g><g class="cls-2"><polyline class="cls-4" points="130.6 371.1 129.9 370.4 129 371.2 128.2 372 129.6 373.4"/></g><g class="cls-2"><polyline class="cls-4" points="226.2 411.6 218.4 411.6 218.4 414 223.9 414"/></g><g class="cls-2"><polyline class="cls-4" points="207.5 425.4 207.5 414 209.1 414 209.1 411.6 206.6 411.6"/></g><g class="cls-2"><line class="cls-4" x1="205.7" y1="424.5" x2="205.7" y2="414"/></g><g class="cls-2"><line class="cls-4" x1="205.7" y1="426.3" x2="200.1" y2="426.3"/></g><g class="cls-2"><line class="cls-4" x1="201.9" y1="424.5" x2="205.7" y2="424.5"/></g><g class="cls-2"><line class="cls-4" x1="205.7" y1="414" x2="201.9" y2="414"/></g><g class="cls-2"><line class="cls-4" x1="201" y1="411.6" x2="206.6" y2="411.6"/></g><g class="cls-2"><line class="cls-4" x1="200.1" y1="426.3" x2="200.1" y2="414"/></g><g class="cls-2"><line class="cls-4" x1="201.9" y1="414" x2="201.9" y2="424.5"/></g><g class="cls-2"><polyline class="cls-4" points="169.5 424.2 153.6 424.2 153.6 426.5 171.8 426.5"/></g><g class="cls-2"><polyline class="cls-4" points="99.6 400.6 98.8 401.4 123.9 426.5 144.3 426.5 144.3 424.2 124.9 424.2 100.5 399.8 99.6 400.6"/></g><g class="cls-2"><line class="cls-4" x1="169.5" y1="413.3" x2="129.6" y2="373.4"/></g><g class="cls-2"><line class="cls-4" x1="131.9" y1="372.4" x2="171.1" y2="411.6"/></g><g class="cls-2"><polyline class="cls-4" points="131.9 372.4 156.8 347.5 156.1 346.9 155.5 346.3 130.6 371.1"/></g><g class="cls-2"><line class="cls-4" x1="356.8" y1="348.4" x2="343.4" y2="361.8"/></g><g class="cls-2"><line class="cls-4" x1="343.4" y1="358.5" x2="354.4" y2="347.5"/></g><g class="cls-2"><line class="cls-4" x1="426.8" y1="278.4" x2="356.8" y2="348.4"/></g><g class="cls-2"><line class="cls-4" x1="355.9" y1="346.1" x2="426.5" y2="275.5"/></g><g class="cls-2"><line class="cls-4" x1="372.9" y1="438.6" x2="372.9" y2="559.5"/></g><g class="cls-2"><line class="cls-4" x1="370.8" y1="558.5" x2="370.8" y2="439.5"/></g><g class="cls-2"><path class="cls-4" d="M153.7,416a9.28,9.28,0,0,0-9.3,9.3"/></g><g class="cls-2"><line class="cls-4" x1="153.6" y1="416.1" x2="153.6" y2="425.4"/></g><g class="cls-2"><line class="cls-4" x1="201" y1="425.4" x2="170.6" y2="425.4"/></g><g class="cls-2"><path class="cls-4" d="M209.1,422.1a9.28,9.28,0,0,0,9.3-9.3"/></g><g class="cls-2"><line class="cls-4" x1="209.1" y1="422.1" x2="209.1" y2="412.8"/></g><g class="cls-2"><path class="cls-4" d="M448.1,285.2a9.24,9.24,0,0,0-13.2,0"/></g><g class="cls-2"><line class="cls-4" x1="448.1" y1="285.2" x2="441.5" y2="291.8"/></g><g class="cls-2"><path class="cls-4" d="M434.9,285.1a9.24,9.24,0,0,0,0-13.2"/></g><g class="cls-2"><line class="cls-4" x1="434.9" y1="271.9" x2="428.3" y2="278.6"/></g><g class="cls-2"><path class="cls-4" d="M328.2,358.2a9.24,9.24,0,0,0,13.2,0"/></g><g class="cls-2"><line class="cls-4" x1="328.3" y1="358.2" x2="334.8" y2="351.6"/></g><g class="cls-2"><line class="cls-4" x1="476.9" y1="349.8" x2="478.9" y2="349.8"/></g><g class="cls-2"><line class="cls-4" x1="477.8" y1="351.6" x2="475.1" y2="351.6"/></g><g class="cls-2"><polyline class="cls-4" points="477.8 351.6 477.8 376 478.3 376 478.9 376 478.9 349.8"/></g><g class="cls-2"><polyline class="cls-4" points="297.5 573.5 306.7 573.5 306.7 571.4 298.4 571.4"/></g><g class="cls-2"><polyline class="cls-4" points="318.3 571.4 319.1 571.4 316.1 571.4 316.1 573.5 318 573.5"/></g><g class="cls-2"><line class="cls-4" x1="318.3" y1="564" x2="318.3" y2="558.5"/></g><g class="cls-2"><line class="cls-4" x1="320.1" y1="560.3" x2="320.1" y2="563.1"/></g><g class="cls-2"><line class="cls-4" x1="325.8" y1="558.5" x2="325.8" y2="564.9"/></g><g class="cls-2"><line class="cls-4" x1="324" y1="563.1" x2="324" y2="560.3"/></g><g class="cls-2"><line class="cls-4" x1="318.3" y1="571.4" x2="318.3" y2="564"/></g><g class="cls-2"><polyline class="cls-4" points="325.8 564.9 320.1 564.9 320.1 573.5"/></g><g class="cls-2"><line class="cls-4" x1="320.1" y1="563.1" x2="324" y2="563.1"/></g><g class="cls-2"><line class="cls-4" x1="227.5" y1="571.4" x2="230.1" y2="571.4"/></g><g class="cls-2"><line class="cls-4" x1="231" y1="573.5" x2="226.6" y2="573.5"/></g><g class="cls-2"><line class="cls-4" x1="230.1" y1="571.4" x2="230.1" y2="563.9"/></g><g class="cls-2"><line class="cls-4" x1="232" y1="562" x2="232" y2="571.4"/></g><g class="cls-2"><line class="cls-4" x1="230.1" y1="563.9" x2="227.5" y2="563.9"/></g><g class="cls-2"><line class="cls-4" x1="225.7" y1="562" x2="232" y2="562"/></g><g class="cls-2"><polyline class="cls-4" points="197.3 573.5 214.8 573.5 214.8 571.4 198.3 571.4"/></g><g class="cls-2"><polyline class="cls-4" points="225.7 571.4 224.1 571.4 224.1 573.5 226.6 573.5"/></g><g class="cls-2"><line class="cls-4" x1="227.5" y1="563.9" x2="227.5" y2="571.4"/></g><g class="cls-2"><line class="cls-4" x1="225.7" y1="571.4" x2="225.7" y2="562"/></g><g class="cls-2"><line class="cls-4" x1="294" y1="571.4" x2="296.6" y2="571.4"/></g><g class="cls-2"><line class="cls-4" x1="297.5" y1="573.5" x2="293.1" y2="573.5"/></g><g class="cls-2"><line class="cls-4" x1="296.6" y1="571.4" x2="296.6" y2="563.9"/></g><g class="cls-2"><line class="cls-4" x1="298.4" y1="562" x2="298.4" y2="571.4"/></g><g class="cls-2"><line class="cls-4" x1="232" y1="571.4" x2="292.2" y2="571.4"/></g><g class="cls-2"><line class="cls-4" x1="293.1" y1="573.5" x2="231" y2="573.5"/></g><g class="cls-2"><line class="cls-4" x1="294" y1="563.9" x2="294" y2="571.4"/></g><g class="cls-2"><polyline class="cls-4" points="292.2 571.4 292.2 562 298.4 562"/></g><g class="cls-2"><line class="cls-4" x1="296.6" y1="563.9" x2="294" y2="563.9"/></g><g class="cls-2"><line class="cls-4" x1="320.1" y1="573.5" x2="320.1" y2="595.9"/></g><g class="cls-2"><line class="cls-4" x1="318" y1="596.8" x2="318" y2="573.5"/></g><g class="cls-2"><line class="cls-4" x1="320.1" y1="595.9" x2="325.8" y2="595.9"/></g><g class="cls-2"><line class="cls-4" x1="324" y1="597.7" x2="320.1" y2="597.7"/></g><g class="cls-2"><polyline class="cls-4" points="324 597.7 324 607.6 324.9 607.6 325.8 607.6 325.8 595.9"/></g><g class="cls-2"><path class="cls-4" d="M316.1,563a9.28,9.28,0,0,0-9.3,9.3"/></g><g class="cls-2"><line class="cls-4" x1="316.1" y1="563.1" x2="316.1" y2="572.4"/></g><g class="cls-2"><line class="cls-4" x1="76.3" y1="571.4" x2="86.8" y2="571.4"/></g><g class="cls-2"><polyline class="cls-4" points="87.8 573.5 87.8 579.3 86 579.3 86 573.5 76.3 573.5"/></g><g class="cls-2"><polyline class="cls-4" points="76.3 597.5 87.8 597.5 87.8 591.8 86 591.8 86 595.7 76.3 595.7 76.3 573.5"/></g><g class="cls-2"><line class="cls-4" x1="74.5" y1="596.6" x2="74.5" y2="572.4"/></g><g class="cls-2"><line class="cls-4" x1="109.8" y1="445.5" x2="109.8" y2="445.8"/></g><g class="cls-2"><line class="cls-4" x1="108.3" y1="447.3" x2="108.3" y2="445.5"/></g><g class="cls-2"><line class="cls-4" x1="109.8" y1="445.8" x2="196.2" y2="445.8"/></g><g class="cls-2"><line class="cls-4" x1="196.2" y1="447.3" x2="108.3" y2="447.3"/></g><g class="cls-2"><line class="cls-4" x1="198.3" y1="446.6" x2="198.3" y2="448"/></g><g class="cls-2"><line class="cls-4" x1="196.2" y1="448.9" x2="196.2" y2="447.3"/></g><g class="cls-2"><polyline class="cls-4" points="109.1 443.5 108.2 443.5 108.2 444.5 108.2 445.5 108.3 445.5"/></g><g class="cls-2"><line class="cls-4" x1="196.2" y1="445.8" x2="196.2" y2="445.5"/></g><g class="cls-2"><line class="cls-4" x1="198.3" y1="444.5" x2="198.3" y2="446.6"/></g><g class="cls-2"><line class="cls-4" x1="171.8" y1="443.5" x2="196.2" y2="443.5"/></g><g class="cls-2"><line class="cls-4" x1="196.2" y1="445.5" x2="170.9" y2="445.5"/></g><g class="cls-2"><line class="cls-4" x1="198.3" y1="445.3" x2="198.3" y2="444.5"/></g><g class="cls-2"><line class="cls-4" x1="196.2" y1="443.5" x2="205.7" y2="443.5"/></g><g class="cls-2"><line class="cls-4" x1="205.7" y1="445.3" x2="198.3" y2="445.3"/></g><g class="cls-2"><line class="cls-4" x1="207.5" y1="444.3" x2="207.5" y2="449.8"/></g><g class="cls-2"><line class="cls-4" x1="205.7" y1="448" x2="205.7" y2="445.3"/></g><g class="cls-2"><line class="cls-4" x1="207.5" y1="449.8" x2="198.3" y2="449.8"/></g><g class="cls-2"><line class="cls-4" x1="198.3" y1="448" x2="205.7" y2="448"/></g><g class="cls-2"><line class="cls-4" x1="86.8" y1="571.4" x2="196.2" y2="571.4"/></g><g class="cls-2"><line class="cls-4" x1="197.3" y1="573.5" x2="87.8" y2="573.5"/></g><g class="cls-2"><polyline class="cls-4" points="196.2 544.1 196.2 560.4 198.3 560.4 198.3 545"/></g><g class="cls-2"><polyline class="cls-4" points="198.3 571.4 198.3 569.8 196.2 569.8 196.2 571.4"/></g><g class="cls-2"><path class="cls-4" d="M206.6,569.8a9.28,9.28,0,0,0-9.3-9.3"/></g><g class="cls-2"><line class="cls-4" x1="206.6" y1="569.8" x2="197.3" y2="569.8"/></g><g class="cls-2"><polyline class="cls-4" points="196.2 448.9 196.2 463.7 198.3 463.7 198.3 449.8"/></g><g class="cls-2"><polyline class="cls-4" points="207.5 474.6 198.3 474.6 198.3 473.1 196.2 473.1 196.2 475.5"/></g><g class="cls-2"><line class="cls-4" x1="205.7" y1="476.4" x2="198.3" y2="476.4"/></g><g class="cls-2"><line class="cls-4" x1="207.5" y1="538.8" x2="207.5" y2="545"/></g><g class="cls-2"><line class="cls-4" x1="205.7" y1="543.2" x2="205.7" y2="540.6"/></g><g class="cls-2"><line class="cls-4" x1="198.3" y1="540.6" x2="198.3" y2="543.2"/></g><g class="cls-2"><line class="cls-4" x1="196.2" y1="544.1" x2="196.2" y2="539.7"/></g><g class="cls-2"><line class="cls-4" x1="207.5" y1="545" x2="198.3" y2="545"/></g><g class="cls-2"><line class="cls-4" x1="198.3" y1="543.2" x2="205.7" y2="543.2"/></g><g class="cls-2"><line class="cls-4" x1="198.3" y1="480.9" x2="198.3" y2="538.8"/></g><g class="cls-2"><line class="cls-4" x1="196.2" y1="539.7" x2="196.2" y2="479.9"/></g><g class="cls-2"><line class="cls-4" x1="205.7" y1="540.6" x2="198.3" y2="540.6"/></g><g class="cls-2"><line class="cls-4" x1="198.3" y1="538.8" x2="207.5" y2="538.8"/></g><g class="cls-2"><line class="cls-4" x1="207.5" y1="474.6" x2="207.5" y2="480.9"/></g><g class="cls-2"><line class="cls-4" x1="205.7" y1="479" x2="205.7" y2="476.4"/></g><g class="cls-2"><line class="cls-4" x1="198.3" y1="476.4" x2="198.3" y2="479"/></g><g class="cls-2"><line class="cls-4" x1="196.2" y1="479.9" x2="196.2" y2="475.5"/></g><g class="cls-2"><line class="cls-4" x1="207.5" y1="480.9" x2="198.3" y2="480.9"/></g><g class="cls-2"><line class="cls-4" x1="198.3" y1="479" x2="205.7" y2="479"/></g><g class="cls-2"><path class="cls-4" d="M206.6,473.1a9.28,9.28,0,0,0-9.3-9.3"/></g><g class="cls-2"><line class="cls-4" x1="206.6" y1="473.1" x2="197.3" y2="473.1"/></g><g class="cls-2"><line class="cls-4" x1="74.5" y1="572.4" x2="74.5" y2="483.2"/></g><g class="cls-2"><line class="cls-4" x1="76.3" y1="481.4" x2="76.3" y2="571.4"/></g><g class="cls-2"><polyline class="cls-4" points="76.3 481.4 73.4 481.4 73.4 482.3 73.4 483.2 74.5 483.2"/></g><g class="cls-2"><line class="cls-4" x1="167.4" y1="443.5" x2="170" y2="443.5"/></g><g class="cls-2"><line class="cls-4" x1="170.9" y1="445.5" x2="166.5" y2="445.5"/></g><g class="cls-2"><line class="cls-4" x1="170" y1="443.5" x2="170" y2="442.6"/></g><g class="cls-2"><line class="cls-4" x1="171.8" y1="440.8" x2="171.8" y2="443.5"/></g><g class="cls-2"><line class="cls-4" x1="170" y1="442.6" x2="167.4" y2="442.6"/></g><g class="cls-2"><line class="cls-4" x1="165.5" y1="440.8" x2="171.8" y2="440.8"/></g><g class="cls-2"><line class="cls-4" x1="109.1" y1="443.5" x2="165.5" y2="443.5"/></g><g class="cls-2"><line class="cls-4" x1="166.5" y1="445.5" x2="109.8" y2="445.5"/></g><g class="cls-2"><line class="cls-4" x1="167.4" y1="442.6" x2="167.4" y2="443.5"/></g><g class="cls-2"><line class="cls-4" x1="165.5" y1="443.5" x2="165.5" y2="440.8"/></g><g class="cls-2"><polyline class="cls-4" points="286.1 691.7 287 691.7 287 688.8 110.6 688.8 110.6 691.7 111.5 691.7 112.4 691.7 112.4 690.6 285.2 690.6 285.2 691.7 286.1 691.7"/></g><g class="cls-2"><line class="cls-4" x1="320.1" y1="597.7" x2="320.1" y2="607.6"/></g><g class="cls-2"><line class="cls-4" x1="318" y1="606.6" x2="318" y2="596.8"/></g><g class="cls-2"><polyline class="cls-4" points="320.1 607.6 319.1 607.6 319.1 656.9"/></g><g class="cls-2"><line class="cls-4" x1="318" y1="657.9" x2="318" y2="606.6"/></g><g class="cls-2"><polyline class="cls-4" points="318 657.9 319.9 657.9 319.9 657.3 319.9 656.9 319.1 656.9"/></g><g class="cls-2"><line class="cls-4" x1="76.3" y1="597.5" x2="76.3" y2="654.5"/></g><g class="cls-2"><line class="cls-4" x1="74.5" y1="652.7" x2="74.5" y2="596.6"/></g><g class="cls-2"><polyline class="cls-4" points="74.5 652.7 73.4 652.7 73.4 653.6 73.4 654.5 76.3 654.5"/></g><g class="cls-2"><path class="cls-4" d="M402.9,357a9.24,9.24,0,0,0,0,13.2"/></g><g class="cls-2"><line class="cls-4" x1="402.8" y1="357" x2="409.4" y2="363.6"/></g><g class="cls-2"><path class="cls-4" d="M440.3,332.7a9.24,9.24,0,0,0-13.2,0"/></g><g class="cls-2"><line class="cls-4" x1="427.1" y1="332.7" x2="433.7" y2="339.3"/></g><g class="cls-2"><polyline class="cls-4" points="475 150.4 515.8 191.2 516.2 190.9 516.5 190.5 476.5 150.4 476.6 150.4 475.6 149.5 474.7 148.6 474.8 148.6"/></g><g class="cls-2"><path class="cls-4" d="M245.9,125a9.24,9.24,0,0,0,0,13.2"/></g><g class="cls-2"><line class="cls-4" x1="245.9" y1="125" x2="252.5" y2="131.6"/></g><g class="cls-2"><path class="cls-4" d="M245.9,138.2a9.24,9.24,0,0,0-13.2,0"/></g><g class="cls-2"><line class="cls-4" x1="232.7" y1="138.2" x2="239.3" y2="144.9"/></g><g class="cls-2"><path class="cls-4" d="M224.1,563a9.28,9.28,0,0,0-9.3,9.3"/></g><g class="cls-2"><line class="cls-4" x1="224.1" y1="563.1" x2="224.1" y2="572.4"/></g><g class="cls-2"><path class="cls-4" d="M86.9,585.5a6.27,6.27,0,0,0,6.3-6.3"/></g><g class="cls-2"><line class="cls-4" x1="93.1" y1="579.3" x2="86.8" y2="579.3"/></g><g class="cls-2"><path class="cls-4" d="M93.1,591.7a6.27,6.27,0,0,0-6.3-6.3"/></g><g class="cls-2"><line class="cls-4" x1="93.1" y1="591.8" x2="86.8" y2="591.8"/></g><g class="cls-2"><polyline class="cls-4" points="207.5 425.4 207.5 426.3 205.7 426.3"/></g><g class="cls-2"><polyline class="cls-4" points="207.5 444.3 207.5 443.5 205.7 443.5"/></g><g class="cls-2"><line class="cls-4" x1="361.7" y1="379" x2="362" y2="378.7"/></g><g class="cls-2"><line class="cls-4" x1="363.3" y1="380" x2="363.5" y2="379.8"/></g><g class="cls-2"><line class="cls-4" x1="318.3" y1="558.5" x2="325.8" y2="558.5"/></g><g class="cls-2"><line class="cls-4" x1="324" y1="560.3" x2="320.1" y2="560.3"/></g><g class="cls-2"><line class="cls-4" x1="316.2" y1="510.6" x2="300.4" y2="494.9"/></g><g class="cls-2"><line class="cls-4" x1="301.9" y1="494.9" x2="316.2" y2="509.2"/></g><g class="cls-2"><line class="cls-4" x1="300.4" y1="494.9" x2="313.3" y2="482"/></g><g class="cls-2"><line class="cls-4" x1="314.7" y1="482" x2="301.9" y2="494.9"/></g><g class="cls-2"><line class="cls-4" x1="324.6" y1="500.8" x2="336.5" y2="488.9"/></g><g class="cls-2"><polyline class="cls-4" points="336.5 488.9 336.5 459.3 337.6 459.3 337.6 489.3 325.3 501.5"/></g><g class="cls-2"><polyline class="cls-4" points="337 459.3 336.5 459.3 291.3 459.3"/></g><g class="cls-2"><polyline class="cls-4" points="314.7 482 292.1 459.3 291.3 460.1 313.3 482"/></g><g class="cls-2"><polyline class="cls-4" points="291.7 459.7 291.3 459.3 282.7 450.7"/></g><g class="cls-2"><line class="cls-4" x1="325.6" y1="379.6" x2="283.4" y2="421.8"/></g><g class="cls-2"><line class="cls-4" x1="281.9" y1="420.4" x2="322.5" y2="379.8"/></g><g class="cls-2"><line class="cls-4" x1="316.2" y1="509.2" x2="324.6" y2="500.8"/></g><g class="cls-2"><line class="cls-4" x1="325.3" y1="501.5" x2="316.2" y2="510.6"/></g><g class="cls-2"><line class="cls-4" x1="228.9" y1="156.7" x2="228.2" y2="157.4"/></g><g class="cls-2"><polyline class="cls-4" points="215.9 142.2 228.2 154.5 229.3 153.4"/></g><g class="cls-2"><line class="cls-4" x1="228.2" y1="157.4" x2="215.9" y2="145.1"/></g><g class="cls-2"><polyline class="cls-4" points="203.2 133.9 202.5 134.7 202.9 135 204.3 133.6 204 133.2 203.2 133.9"/></g><g class="cls-2"><polyline class="cls-4" points="215.9 142.2 214.4 143.6 214.1 143.3 212.6 144.7 213 145.1"/></g><g class="cls-2"><line class="cls-4" x1="215.9" y1="145.1" x2="215.2" y2="145.9"/></g><g class="cls-2"><line class="cls-4" x1="233" y1="226.2" x2="230" y2="223.1"/></g><g class="cls-2"><line class="cls-4" x1="231" y1="221.2" x2="232.8" y2="223"/></g><g class="cls-2"><line class="cls-4" x1="215.2" y1="145.9" x2="228.4" y2="159.1"/></g><g class="cls-2"><line class="cls-4" x1="227.4" y1="159.5" x2="213" y2="145.1"/></g><g class="cls-2"><line class="cls-4" x1="232.8" y1="152.8" x2="231" y2="154.6"/></g><g class="cls-2"><line class="cls-4" x1="229.3" y1="153.4" x2="233" y2="149.7"/></g><g class="cls-2"><line class="cls-4" x1="228.9" y1="221.2" x2="228.9" y2="156.7"/></g><g class="cls-2"><line class="cls-4" x1="231" y1="154.6" x2="231" y2="221.2"/></g><g class="cls-2"><polyline class="cls-4" points="216.2 234 204.8 245.3 205.5 246.1 206.3 246.8 217.2 235.9"/></g><g class="cls-2"><line class="cls-4" x1="228.4" y1="159.1" x2="228.4" y2="221"/></g><g class="cls-2"><line class="cls-4" x1="227.4" y1="220.6" x2="227.4" y2="159.5"/></g><g class="cls-2"><polyline class="cls-4" points="227.4 220.6 203.7 244.2 204.1 244.6 204.4 245 228.4 221"/></g><g class="cls-2"><path class="cls-4" d="M208.5,139.1a6.82,6.82,0,0,0,0-9.7"/></g><g class="cls-2"><line class="cls-4" x1="208.5" y1="129.4" x2="203.6" y2="134.3"/></g><g class="cls-2"><path class="cls-4" d="M218.2,139.1a6.82,6.82,0,0,0-9.7,0"/></g><g class="cls-2"><line class="cls-4" x1="218.2" y1="139.1" x2="213.3" y2="144"/></g><g class="cls-2"><line class="cls-4" x1="233.5" y1="226.6" x2="233" y2="226.2"/></g><g class="cls-2"><line class="cls-4" x1="234.7" y1="224.8" x2="235.4" y2="225.6"/></g><g class="cls-2"><polyline class="cls-4" points="267 117.2 266.3 116.5 251.8 130.9 253.2 132.4 267.7 117.9 267 117.2"/></g><g class="cls-2"><polyline class="cls-4" points="234.7 151 240 145.6 238.6 144.1 233 149.7"/></g><g class="cls-2"><line class="cls-4" x1="232.8" y1="223" x2="232.8" y2="152.8"/></g><g class="cls-2"><line class="cls-4" x1="234.7" y1="151" x2="234.7" y2="224.8"/></g><g class="cls-2"><line class="cls-4" x1="433.4" y1="268.6" x2="454.6" y2="247.4"/></g><g class="cls-2"><line class="cls-4" x1="456.2" y1="248.7" x2="436.1" y2="268.7"/></g><g class="cls-2"><polyline class="cls-4" points="456.4 148.6 456.4 130.2 455.5 129.4 454.6 128.4 454.6 149.5"/></g><g class="cls-2"><line class="cls-4" x1="230" y1="223.1" x2="218.1" y2="235"/></g><g class="cls-2"><line class="cls-4" x1="216.2" y1="234" x2="228.9" y2="221.2"/></g><g class="cls-2"><polyline class="cls-4" points="220.8 257.2 218.7 259.2 219.2 259.7 219.6 260.1 221.3 258.5"/></g><g class="cls-2"><line class="cls-4" x1="221.1" y1="239.8" x2="217.2" y2="235.9"/></g><g class="cls-2"><line class="cls-4" x1="218.1" y1="235" x2="221.6" y2="238.5"/></g><g class="cls-2"><polyline class="cls-4" points="231.5 248.3 229.5 246.3 228.6 247.3 229.6 248.3"/></g><g class="cls-2"><polyline class="cls-4" points="221.1 239.8 222 240.7 222.9 239.8 222.5 239.4"/></g><g class="cls-2"><line class="cls-4" x1="354.4" y1="347.5" x2="355.9" y2="346.1"/></g><g class="cls-2"><polyline class="cls-4" points="347.1 337.2 345.6 338.7 246.6 239.8 248.1 238.3 347.1 337.2"/></g><g class="cls-2"><polyline class="cls-4" points="234.4 227.5 237.5 230.7 239 229.2 235.4 225.6"/></g><g class="cls-2"><line class="cls-4" x1="221.6" y1="238.5" x2="233.5" y2="226.6"/></g><g class="cls-2"><line class="cls-4" x1="234.4" y1="227.5" x2="222.5" y2="239.4"/></g><g class="cls-2"><path class="cls-4" d="M235.7,240.2a9.24,9.24,0,0,0-13.2,0"/></g><g class="cls-2"><line class="cls-4" x1="235.6" y1="240.2" x2="229" y2="246.8"/></g><g class="cls-2"><line class="cls-4" x1="231.5" y1="248.3" x2="222.1" y2="257.6"/></g><g class="cls-2"><line class="cls-4" x1="220.8" y1="257.2" x2="229.6" y2="248.3"/></g><g class="cls-2"><polyline class="cls-4" points="232.2 269.5 164.3 337.5 164.9 338.1 165.6 338.7 233.9 270.3"/></g><g class="cls-2"><line class="cls-4" x1="222.1" y1="257.6" x2="233.1" y2="268.6"/></g><g class="cls-2"><line class="cls-4" x1="232.2" y1="269.5" x2="221.3" y2="258.5"/></g><g class="cls-2"><line class="cls-4" x1="460.8" y1="241.2" x2="460.8" y2="236.5"/></g><g class="cls-2"><line class="cls-4" x1="462.6" y1="234.7" x2="462.6" y2="242.3"/></g><g class="cls-2"><line class="cls-4" x1="454.6" y1="247.4" x2="454.6" y2="235.6"/></g><g class="cls-2"><polyline class="cls-4" points="460.8 236.5 456.4 236.5 456.4 245.6"/></g><g class="cls-2"><line class="cls-4" x1="456.4" y1="234.7" x2="462.6" y2="234.7"/></g><g class="cls-2"><path class="cls-4" d="M464.9,232.9a9.28,9.28,0,0,0-9.3-9.3"/></g><g class="cls-2"><line class="cls-4" x1="464.8" y1="232.9" x2="455.5" y2="232.9"/></g><g class="cls-2"><path class="cls-4" d="M455.5,223.5a9.28,9.28,0,0,0,9.3-9.3"/></g><g class="cls-2"><line class="cls-4" x1="464.8" y1="214.2" x2="455.5" y2="214.2"/></g><g class="cls-2"><path class="cls-4" d="M464.9,170a9.28,9.28,0,0,0-9.3-9.3"/></g><g class="cls-2"><line class="cls-4" x1="464.8" y1="170" x2="455.5" y2="170"/></g><g class="cls-2"><path class="cls-4" d="M455.5,160.6a9.28,9.28,0,0,0,9.3-9.3"/></g><g class="cls-2"><line class="cls-4" x1="464.8" y1="151.3" x2="455.5" y2="151.3"/></g><g class="cls-2"><line class="cls-4" x1="454.6" y1="202.4" x2="454.6" y2="181.9"/></g><g class="cls-2"><polyline class="cls-4" points="462.6 182.8 456.4 182.8 456.4 201.4"/></g><g class="cls-2"><line class="cls-4" x1="456.4" y1="180.9" x2="460.8" y2="180.9"/></g><g class="cls-2"><line class="cls-4" x1="454.6" y1="181.9" x2="454.6" y2="172.8"/></g><g class="cls-2"><polyline class="cls-4" points="460.8 173.6 456.4 173.6 456.4 180.9"/></g><g class="cls-2"><line class="cls-4" x1="456.4" y1="171.8" x2="462.6" y2="171.8"/></g><g class="cls-2"><line class="cls-4" x1="460.8" y1="203.3" x2="456.4" y2="203.3"/></g><g class="cls-2"><line class="cls-4" x1="456.4" y1="201.4" x2="462.6" y2="201.4"/></g><g class="cls-2"><line class="cls-4" x1="454.6" y1="211.5" x2="454.6" y2="202.4"/></g><g class="cls-2"><line class="cls-4" x1="456.4" y1="203.3" x2="456.4" y2="210.5"/></g><g class="cls-2"><polyline class="cls-4" points="456.4 234.7 456.4 232.9 454.6 232.9 454.6 235.6"/></g><g class="cls-2"><polyline class="cls-4" points="454.6 211.5 454.6 214.2 456.4 214.2 456.4 212.4 462.6 212.4"/></g><g class="cls-2"><polyline class="cls-4" points="456.4 210.5 460.8 210.5 460.8 203.3"/></g><g class="cls-2"><line class="cls-4" x1="462.6" y1="201.4" x2="462.6" y2="212.4"/></g><g class="cls-2"><line class="cls-4" x1="460.8" y1="180.9" x2="460.8" y2="173.6"/></g><g class="cls-2"><line class="cls-4" x1="462.6" y1="171.8" x2="462.6" y2="182.8"/></g><g class="cls-2"><line class="cls-4" x1="456.4" y1="245.6" x2="460.8" y2="241.2"/></g><g class="cls-2"><line class="cls-4" x1="462.6" y1="242.3" x2="456.2" y2="248.7"/></g><g class="cls-2"><line class="cls-4" x1="475" y1="150.4" x2="456.4" y2="150.4"/></g><g class="cls-2"><line class="cls-4" x1="456.4" y1="148.6" x2="474.8" y2="148.6"/></g><g class="cls-2"><polyline class="cls-4" points="456.4 171.8 456.4 170 454.6 170 454.6 172.8"/></g><g class="cls-2"><polyline class="cls-4" points="454.6 149.5 454.6 151.3 456.4 151.3 456.4 150.4"/></g><g class="cls-2"><line class="cls-5" x1="538.5" y1="91" x2="480.4" y2="149.1"/></g><g class="cls-2"><line class="cls-5" x1="466.9" y1="135.5" x2="538.5" y2="64.1"/></g><g class="cls-2"><line class="cls-5" x1="363.9" y1="642.4" x2="445.6" y2="724.1"/></g><g class="cls-2"><line class="cls-5" x1="336.6" y1="642.4" x2="445.6" y2="751.3"/></g><g class="cls-2"><text class="cls-6" transform="translate(368.9 77.08) rotate(90)">103</text></g><g class="cls-2"><text class="cls-7" transform="translate(357.65 73.99) rotate(90)"><tspan class="cls-8">T</tspan><tspan x="3.7" y="0">en</tspan><tspan class="cls-9" x="11.66" y="0">n</tspan><tspan x="15.61" y="0">ebaum</tspan></text></g><g class="cls-2"><text class="cls-7" transform="translate(349.76 75.09) rotate(90)">Audi<tspan class="cls-10" x="14.43" y="0">t</tspan><tspan class="cls-11" x="17.02" y="0">orium</tspan></text></g><g class="cls-2"><text class="cls-12" transform="translate(403.48 372.81) rotate(90)"><tspan class="cls-13">R</tspan><tspan class="cls-14" x="4.52" y="0">e</tspan><tspan class="cls-15" x="8.41" y="0">s</tspan><tspan x="11.97" y="0">t</tspan><tspan class="cls-16" x="14.67" y="0">r</tspan><tspan class="cls-17" x="17.34" y="0">oom:</tspan></text></g><g class="cls-2"><text class="cls-12" transform="translate(395.71 381.25) rotate(90)">Mens</text></g><g class="cls-2"><text class="cls-12" transform="translate(461.84 304.36) rotate(90)"><tspan class="cls-13">R</tspan><tspan class="cls-14" x="4.52" y="0">e</tspan><tspan class="cls-15" x="8.41" y="0">s</tspan><tspan x="11.97" y="0">t</tspan><tspan class="cls-16" x="14.67" y="0">r</tspan><tspan class="cls-17" x="17.34" y="0">oom:</tspan></text></g><g class="cls-2"><text class="cls-12" transform="translate(454 307.4) rotate(90)"><tspan class="cls-18">W</tspan><tspan x="6.15" y="0">o</tspan><tspan class="cls-19" x="10.2" y="0">m</tspan><tspan x="16.28" y="0">ens</tspan></text></g><g class="cls-2"><text class="cls-12" transform="translate(421.57 341.7) rotate(90)">El<tspan class="cls-20" x="6.2" y="0">e</tspan><tspan class="cls-21" x="10.06" y="0">v</tspan><tspan class="cls-22" x="13.5" y="0">a</tspan><tspan class="cls-23" x="17.26" y="0">t</tspan><tspan x="19.85" y="0">or</tspan></text></g><g class="cls-2"><text class="cls-24" transform="translate(530.72 80.39) rotate(135)"><tspan class="cls-25">T</tspan><tspan x="4.64" y="0">O I</tspan><tspan class="cls-26" x="14.27" y="0">S</tspan><tspan class="cls-27" x="19.36" y="0">Y</tspan><tspan class="cls-28" x="24.29" y="0">E A</tspan><tspan class="cls-29" x="36.86" y="0">NN</tspan><tspan x="48.66" y="0">EX</tspan></text></g><g class="cls-2"><text class="cls-24" transform="translate(388.98 684.98) rotate(45)"><tspan class="cls-25">T</tspan><tspan x="4.64" y="0">O GROSEC</tspan><tspan class="cls-30" x="44.41" y="0">L</tspan><tspan x="49.44" y="0">OSE</tspan></text></g><g class="cls-2"><text class="cls-6" transform="translate(252.3 383.4) rotate(90)">105</text></g><g class="cls-2"><text class="cls-6" transform="translate(169.41 531.21) rotate(90)">109</text></g><g class="cls-2"><text class="cls-6" transform="translate(289.2 585.1) rotate(90)"><tspan class="cls-31">11</tspan><tspan x="15.72" y="0">1</tspan></text></g><g class="cls-2"><text class="cls-6" transform="translate(400.84 426.75) rotate(90)"><tspan class="cls-31">1</tspan><tspan x="7.86" y="0">15</tspan></text></g></svg>